<mxfile host="app.diagrams.net" agent="Mozilla/5.0 (Windows NT 10.0; Win64; x64) AppleWebKit/537.36 (KHTML, like Gecko) Chrome/136.0.0.0 Safari/537.36" version="27.0.5">
  <diagram id="XC-6pf4Afm8j0Y0FI-te" name="Page-1">
    <mxGraphModel dx="3970" dy="2418" grid="1" gridSize="10" guides="1" tooltips="1" connect="1" arrows="1" fold="1" page="1" pageScale="1" pageWidth="827" pageHeight="1169" math="0" shadow="0">
      <root>
        <mxCell id="0" />
        <mxCell id="1" parent="0" />
        <mxCell id="rWie0WMUtJvuCDWaPYeD-3" value="" style="endArrow=diamondThin;endFill=1;endSize=24;html=1;rounded=0;exitX=0.91;exitY=0.002;exitDx=0;exitDy=0;exitPerimeter=0;" parent="1" source="ZFoCYjIveR0NVvnjtfk5-8" edge="1">
          <mxGeometry width="160" relative="1" as="geometry">
            <mxPoint x="-490" y="790" as="sourcePoint" />
            <mxPoint x="-111.5" y="509.5" as="targetPoint" />
            <Array as="points">
              <mxPoint x="-490" y="620" />
              <mxPoint x="-420" y="620" />
              <mxPoint x="-420" y="510" />
            </Array>
          </mxGeometry>
        </mxCell>
        <mxCell id="tWtYhvpoS7C6a5kGyOFx-1" value="&lt;p style=&quot;margin:0px;margin-top:4px;text-align:center;&quot;&gt;&lt;b&gt;Korisnik&lt;/b&gt;&lt;/p&gt;&lt;hr size=&quot;1&quot; style=&quot;border-style:solid;&quot;&gt;&lt;p style=&quot;margin:0px;margin-left:4px;&quot;&gt;&lt;span style=&quot;background-color: transparent; color: light-dark(rgb(0, 0, 0), rgb(255, 255, 255));&quot;&gt;-ID: Integer&amp;nbsp;&lt;/span&gt;&lt;/p&gt;&lt;p style=&quot;margin:0px;margin-left:4px;&quot;&gt;-imeKorisnika: String&amp;nbsp;&lt;/p&gt;&lt;p style=&quot;margin:0px;margin-left:4px;&quot;&gt;-prezimeKorisnika: String&lt;/p&gt;&lt;p style=&quot;margin:0px;margin-left:4px;&quot;&gt;-emailKorisnika: String&lt;/p&gt;&lt;p style=&quot;margin:0px;margin-left:4px;&quot;&gt;-lozinkaKorisnika: String&lt;/p&gt;&lt;p style=&quot;margin:0px;margin-left:4px;&quot;&gt;-brojTelefona: String&lt;/p&gt;&lt;p style=&quot;margin:0px;margin-left:4px;&quot;&gt;-datumPridruzivanja: Date&lt;/p&gt;&lt;hr size=&quot;1&quot; style=&quot;border-style:solid;&quot;&gt;&lt;p style=&quot;margin:0px;margin-left:4px;&quot;&gt;&amp;lt;&amp;lt;create&amp;gt;&amp;gt;+korisnik()&lt;br&gt;+prikaziProfil(): String&lt;/p&gt;" style="verticalAlign=top;align=left;overflow=fill;html=1;whiteSpace=wrap;fillColor=#fad9d5;strokeColor=#ae4132;" parent="1" vertex="1">
          <mxGeometry x="-751.5" y="320" width="283" height="210" as="geometry" />
        </mxCell>
        <mxCell id="ZFoCYjIveR0NVvnjtfk5-1" value="&lt;p style=&quot;margin:0px;margin-top:4px;text-align:center;&quot;&gt;&lt;b&gt;Sesija&lt;/b&gt;&lt;/p&gt;&lt;hr size=&quot;1&quot; style=&quot;border-style:solid;&quot;&gt;&lt;p style=&quot;margin:0px;margin-left:4px;&quot;&gt;&lt;span style=&quot;background-color: transparent; color: light-dark(rgb(0, 0, 0), rgb(255, 255, 255));&quot;&gt;-sesijaId: Integer&amp;nbsp;&lt;/span&gt;&lt;/p&gt;&lt;p style=&quot;margin:0px;margin-left:4px;&quot;&gt;-prijavljeniKorisnik: Korisnik&amp;nbsp;&lt;/p&gt;&lt;hr size=&quot;1&quot; style=&quot;border-style:solid;&quot;&gt;&lt;p style=&quot;margin:0px;margin-left:4px;&quot;&gt;+prijaviSe(korisnik: Korisnik, email: String, lozinka: String): Boolean&lt;br&gt;+odjaviSe(): void&lt;/p&gt;" style="verticalAlign=top;align=left;overflow=fill;html=1;whiteSpace=wrap;fillColor=#fad9d5;strokeColor=#ae4132;" parent="1" vertex="1">
          <mxGeometry x="-810" y="80" width="400" height="130" as="geometry" />
        </mxCell>
        <mxCell id="ZFoCYjIveR0NVvnjtfk5-2" value="&lt;p style=&quot;margin:0px;margin-top:4px;text-align:center;&quot;&gt;&lt;b&gt;Korisnik_Nekretnina&lt;/b&gt;&lt;/p&gt;&lt;hr size=&quot;1&quot; style=&quot;border-style:solid;&quot;&gt;&lt;p style=&quot;margin:0px;margin-left:4px;&quot;&gt;&lt;span style=&quot;background-color: transparent; color: light-dark(rgb(0, 0, 0), rgb(255, 255, 255));&quot;&gt;-ID: Integer&amp;nbsp;&lt;/span&gt;&lt;/p&gt;&lt;p style=&quot;margin:0px;margin-left:4px;&quot;&gt;-ID_nekretnina: Integer&lt;br&gt;&lt;/p&gt;&lt;p style=&quot;margin:0px;margin-left:4px;&quot;&gt;-ID_korisnik: Integer&lt;/p&gt;&lt;p style=&quot;margin:0px;margin-left:4px;&quot;&gt;&lt;br&gt;&lt;/p&gt;" style="verticalAlign=top;align=left;overflow=fill;html=1;whiteSpace=wrap;fillColor=#fad9d5;strokeColor=#ae4132;" parent="1" vertex="1">
          <mxGeometry x="-370" y="360" width="180" height="90" as="geometry" />
        </mxCell>
        <mxCell id="ZFoCYjIveR0NVvnjtfk5-3" value="&lt;p style=&quot;margin:0px;margin-top:4px;text-align:center;&quot;&gt;&lt;b&gt;Vlasnik_Nekretnina&lt;/b&gt;&lt;/p&gt;&lt;hr size=&quot;1&quot; style=&quot;border-style:solid;&quot;&gt;&lt;p style=&quot;margin:0px;margin-left:4px;&quot;&gt;&lt;span style=&quot;background-color: transparent; color: light-dark(rgb(0, 0, 0), rgb(255, 255, 255));&quot;&gt;-ID: Integer&amp;nbsp;&lt;/span&gt;&lt;/p&gt;&lt;p style=&quot;margin:0px;margin-left:4px;&quot;&gt;-ID_nekretnina: Integer&lt;br&gt;&lt;/p&gt;&lt;p style=&quot;margin:0px;margin-left:4px;&quot;&gt;-ID_vlasnik: Integer&lt;/p&gt;&lt;p style=&quot;margin:0px;margin-left:4px;&quot;&gt;&lt;br&gt;&lt;/p&gt;" style="verticalAlign=top;align=left;overflow=fill;html=1;whiteSpace=wrap;fillColor=#fad9d5;strokeColor=#ae4132;" parent="1" vertex="1">
          <mxGeometry x="-370" y="535" width="180" height="90" as="geometry" />
        </mxCell>
        <mxCell id="ZFoCYjIveR0NVvnjtfk5-4" value="&lt;p style=&quot;margin:0px;margin-top:4px;text-align:center;&quot;&gt;&lt;b&gt;Poruka&lt;/b&gt;&lt;/p&gt;&lt;hr size=&quot;1&quot; style=&quot;border-style:solid;&quot;&gt;&lt;p style=&quot;margin:0px;margin-left:4px;&quot;&gt;&lt;span style=&quot;background-color: transparent; color: light-dark(rgb(0, 0, 0), rgb(255, 255, 255));&quot;&gt;-ID: Integer&amp;nbsp;&lt;/span&gt;&lt;/p&gt;&lt;p style=&quot;margin:0px;margin-left:4px;&quot;&gt;-posiljalacId: Integer&amp;nbsp;&lt;/p&gt;&lt;p style=&quot;margin:0px;margin-left:4px;&quot;&gt;-primalacId: Integer&lt;/p&gt;&lt;p style=&quot;margin:0px;margin-left:4px;&quot;&gt;-sadrzaj: String&lt;/p&gt;&lt;p style=&quot;margin:0px;margin-left:4px;&quot;&gt;-procitano: Boolean&lt;/p&gt;&lt;p style=&quot;margin:0px;margin-left:4px;&quot;&gt;-datumSlanja: Date&lt;/p&gt;&lt;hr size=&quot;1&quot; style=&quot;border-style:solid;&quot;&gt;&lt;p style=&quot;margin:0px;margin-left:4px;&quot;&gt;+posalji(): void&lt;/p&gt;&lt;p style=&quot;margin:0px;margin-left:4px;&quot;&gt;+prikaziDetalje(): String&lt;/p&gt;" style="verticalAlign=top;align=left;overflow=fill;html=1;whiteSpace=wrap;fillColor=#fad9d5;strokeColor=#ae4132;" parent="1" vertex="1">
          <mxGeometry x="-1130" y="350" width="220" height="170" as="geometry" />
        </mxCell>
        <mxCell id="ZFoCYjIveR0NVvnjtfk5-5" value="&lt;p style=&quot;margin:0px;margin-top:4px;text-align:center;&quot;&gt;&lt;b&gt;FilterNekretnina&lt;/b&gt;&lt;/p&gt;&lt;hr size=&quot;1&quot; style=&quot;border-style:solid;&quot;&gt;&lt;p style=&quot;margin:0px;margin-left:4px;&quot;&gt;&lt;span style=&quot;background-color: transparent; color: light-dark(rgb(0, 0, 0), rgb(255, 255, 255));&quot;&gt;-ID: Integer&amp;nbsp;&lt;/span&gt;&lt;/p&gt;&lt;p style=&quot;margin:0px;margin-left:4px;&quot;&gt;-minCijena: Double&amp;nbsp;&lt;/p&gt;&lt;p style=&quot;margin:0px;margin-left:4px;&quot;&gt;-maxCijena: Double&lt;/p&gt;&lt;p style=&quot;margin:0px;margin-left:4px;&quot;&gt;-brojSoba: Integer&lt;/p&gt;&lt;p style=&quot;margin:0px;margin-left:4px;&quot;&gt;-kvadratura: Integer&lt;/p&gt;&lt;p style=&quot;margin:0px;margin-left:4px;&quot;&gt;-tipNekretnine: Kategorija&lt;/p&gt;&lt;p style=&quot;margin:0px;margin-left:4px;&quot;&gt;-lokacija: Lokacija&lt;/p&gt;&lt;hr size=&quot;1&quot; style=&quot;border-style:solid;&quot;&gt;&lt;p style=&quot;margin:0px;margin-left:4px;&quot;&gt;+filtrirajPoCijeni(): List&amp;lt;Nekretnina&amp;gt;&lt;/p&gt;&lt;p style=&quot;margin:0px;margin-left:4px;&quot;&gt;+filtrirajPoKategoriji(): List&amp;lt;Nekretnina&amp;gt;&lt;/p&gt;&lt;p style=&quot;margin:0px;margin-left:4px;&quot;&gt;+filtrirajPoKvadraturi(): List&amp;lt;Nekretnina&amp;gt;&lt;/p&gt;&lt;p style=&quot;margin:0px;margin-left:4px;&quot;&gt;+filtrirajPoBrojuSoba(): List&amp;lt;Nekretnina&amp;gt;&lt;/p&gt;&lt;p style=&quot;margin:0px;margin-left:4px;&quot;&gt;+filtrirajPoLokaciji(): List&amp;lt;Nekretnina&amp;gt;&lt;/p&gt;&lt;p style=&quot;margin:0px;margin-left:4px;&quot;&gt;&lt;br&gt;&lt;/p&gt;" style="verticalAlign=top;align=left;overflow=fill;html=1;whiteSpace=wrap;fillColor=#fad9d5;strokeColor=#ae4132;" parent="1" vertex="1">
          <mxGeometry x="-1340" y="595" width="240" height="230" as="geometry" />
        </mxCell>
        <mxCell id="ZFoCYjIveR0NVvnjtfk5-6" value="&lt;p style=&quot;margin:0px;margin-top:4px;text-align:center;&quot;&gt;&lt;b&gt;ObavjeÅ¡tenje&lt;/b&gt;&lt;/p&gt;&lt;hr size=&quot;1&quot; style=&quot;border-style:solid;&quot;&gt;&lt;p style=&quot;margin:0px;margin-left:4px;&quot;&gt;&lt;span style=&quot;background-color: transparent; color: light-dark(rgb(0, 0, 0), rgb(255, 255, 255));&quot;&gt;-ID: Integer&amp;nbsp;&lt;/span&gt;&lt;/p&gt;&lt;p style=&quot;margin:0px;margin-left:4px;&quot;&gt;-korisnikId: Integer&lt;/p&gt;&lt;p style=&quot;margin:0px;margin-left:4px;&quot;&gt;-kriterij: Kriterij&lt;/p&gt;&lt;p style=&quot;margin:0px;margin-left:4px;&quot;&gt;-datumObavjestenja: Date&lt;/p&gt;&lt;p style=&quot;margin:0px;margin-left:4px;&quot;&gt;-poruka: String&lt;/p&gt;&lt;hr size=&quot;1&quot; style=&quot;border-style:solid;&quot;&gt;&lt;p style=&quot;margin:0px;margin-left:4px;&quot;&gt;+posaljiObavjestenjeKorisniku(): void&lt;br&gt;+generisiObavjestenje(): void&lt;/p&gt;" style="verticalAlign=top;align=left;overflow=fill;html=1;whiteSpace=wrap;fillColor=#fad9d5;strokeColor=#ae4132;" parent="1" vertex="1">
          <mxGeometry x="-971.5" y="640" width="220" height="160" as="geometry" />
        </mxCell>
        <mxCell id="ZFoCYjIveR0NVvnjtfk5-7" value="&lt;p style=&quot;margin:0px;margin-top:4px;text-align:center;&quot;&gt;&lt;b&gt;Kriterij&lt;/b&gt;&lt;/p&gt;&lt;hr size=&quot;1&quot; style=&quot;border-style:solid;&quot;&gt;&lt;p style=&quot;margin:0px;margin-left:4px;&quot;&gt;&lt;span style=&quot;background-color: transparent; color: light-dark(rgb(0, 0, 0), rgb(255, 255, 255));&quot;&gt;-kriterijId: Integer&amp;nbsp;&lt;/span&gt;&lt;/p&gt;&lt;p style=&quot;margin:0px;margin-left:4px;&quot;&gt;-obavjestenjeId: Integer&lt;br&gt;&lt;/p&gt;&lt;p style=&quot;margin:0px;margin-left:4px;&quot;&gt;-vrijednost: String&lt;/p&gt;&lt;p style=&quot;margin:0px;margin-left:4px;&quot;&gt;&lt;br&gt;&lt;/p&gt;" style="verticalAlign=top;align=left;overflow=fill;html=1;whiteSpace=wrap;fillColor=#fad9d5;strokeColor=#ae4132;" parent="1" vertex="1">
          <mxGeometry x="-951.5" y="880" width="180" height="90" as="geometry" />
        </mxCell>
        <mxCell id="ZFoCYjIveR0NVvnjtfk5-8" value="&lt;p style=&quot;margin:0px;margin-top:4px;text-align:center;&quot;&gt;&lt;b&gt;Oglas&lt;/b&gt;&lt;/p&gt;&lt;hr size=&quot;1&quot; style=&quot;border-style:solid;&quot;&gt;&lt;p style=&quot;margin:0px;margin-left:4px;&quot;&gt;&lt;span style=&quot;background-color: transparent; color: light-dark(rgb(0, 0, 0), rgb(255, 255, 255));&quot;&gt;-ID: Integer&amp;nbsp;&lt;/span&gt;&lt;/p&gt;&lt;p style=&quot;margin:0px;margin-left:4px;&quot;&gt;-jeAktivan:Boolean&lt;/p&gt;&lt;p style=&quot;margin:0px;margin-left:4px;&quot;&gt;-nekretnina: Nekretnina&lt;/p&gt;&lt;p style=&quot;margin:0px;margin-left:4px;&quot;&gt;-datumPostavljanja: Date&lt;/p&gt;&lt;p style=&quot;margin:0px;margin-left:4px;&quot;&gt;-brojPregleda: Integer&lt;/p&gt;&lt;hr size=&quot;1&quot; style=&quot;border-style:solid;&quot;&gt;&lt;p style=&quot;margin:0px;margin-left:4px;&quot;&gt;+aktivirajOglas(): void&lt;br&gt;+deaktivirajOglas(): void&lt;/p&gt;&lt;p style=&quot;margin:0px;margin-left:4px;&quot;&gt;+prikaziStatistiku(): String&lt;/p&gt;" style="verticalAlign=top;align=left;overflow=fill;html=1;whiteSpace=wrap;fillColor=#fad9d5;strokeColor=#ae4132;" parent="1" vertex="1">
          <mxGeometry x="-688.5" y="800" width="220" height="170" as="geometry" />
        </mxCell>
        <mxCell id="ZFoCYjIveR0NVvnjtfk5-9" value="&lt;p style=&quot;margin:0px;margin-top:4px;text-align:center;&quot;&gt;&lt;b&gt;Nekretnina&lt;/b&gt;&lt;/p&gt;&lt;hr size=&quot;1&quot; style=&quot;border-style:solid;&quot;&gt;&lt;p style=&quot;margin:0px;margin-left:4px;&quot;&gt;&lt;span style=&quot;background-color: transparent; color: light-dark(rgb(0, 0, 0), rgb(255, 255, 255));&quot;&gt;-ID: Integer&amp;nbsp;&lt;/span&gt;&lt;/p&gt;&lt;p style=&quot;margin:0px;margin-left:4px;&quot;&gt;-naslov: String&amp;nbsp;&lt;/p&gt;&lt;p style=&quot;margin:0px;margin-left:4px;&quot;&gt;-opisNekretnine: String&lt;/p&gt;&lt;p style=&quot;margin:0px;margin-left:4px;&quot;&gt;-cijena: Double&lt;/p&gt;&lt;p style=&quot;margin:0px;margin-left:4px;&quot;&gt;-kvadratura: Double&lt;/p&gt;&lt;p style=&quot;margin:0px;margin-left:4px;&quot;&gt;-lokacija: String&lt;/p&gt;&lt;p style=&quot;margin:0px;margin-left:4px;&quot;&gt;-brojSoba: Integer&lt;/p&gt;&lt;p style=&quot;margin:0px;margin-left:4px;&quot;&gt;-vrstaNekretnine: Kategorija&lt;/p&gt;&lt;p style=&quot;margin:0px;margin-left:4px;&quot;&gt;-vlasnikId: Integer&lt;/p&gt;&lt;hr size=&quot;1&quot; style=&quot;border-style:solid;&quot;&gt;&lt;p style=&quot;margin:0px;margin-left:4px;&quot;&gt;&amp;lt;&amp;lt;create&amp;gt;&amp;gt;+nekretnina()&lt;/p&gt;&lt;p style=&quot;margin:0px;margin-left:4px;&quot;&gt;&amp;lt;&amp;lt;destroy&amp;gt;&amp;gt;+nekretnina()&lt;br&gt;+prikaziDetalje(): String&lt;/p&gt;&lt;p style=&quot;margin:0px;margin-left:4px;&quot;&gt;+pronadjiVlasnika(): Korisnik&lt;/p&gt;" style="verticalAlign=top;align=left;overflow=fill;html=1;whiteSpace=wrap;fillColor=#fad9d5;strokeColor=#ae4132;" parent="1" vertex="1">
          <mxGeometry x="-110" y="371" width="290" height="250" as="geometry" />
        </mxCell>
        <mxCell id="ZFoCYjIveR0NVvnjtfk5-10" value="&lt;p style=&quot;margin:0px;margin-top:4px;text-align:center;&quot;&gt;&lt;b&gt;&amp;lt;&amp;lt;enumeration&amp;gt;&amp;gt;&lt;/b&gt;&lt;/p&gt;&lt;p style=&quot;margin:0px;margin-top:4px;text-align:center;&quot;&gt;&lt;b&gt;Kategorija&lt;/b&gt;&lt;/p&gt;&lt;hr size=&quot;1&quot; style=&quot;border-style:solid;&quot;&gt;&lt;p style=&quot;margin:0px;margin-left:4px;&quot;&gt;KUCA&lt;/p&gt;&lt;p style=&quot;margin:0px;margin-left:4px;&quot;&gt;STAN&lt;/p&gt;&lt;p style=&quot;margin:0px;margin-left:4px;&quot;&gt;POSLOVNI PROSTOR&lt;/p&gt;&lt;p style=&quot;margin:0px;margin-left:4px;&quot;&gt;GARAZA&lt;/p&gt;&lt;p style=&quot;margin:0px;margin-left:4px;&quot;&gt;VIKENDICA&lt;/p&gt;&lt;p style=&quot;margin:0px;margin-left:4px;&quot;&gt;ZEMLJISTE&lt;/p&gt;&lt;p style=&quot;margin:0px;margin-left:4px;&quot;&gt;&lt;br&gt;&lt;/p&gt;&lt;p style=&quot;margin:0px;margin-left:4px;&quot;&gt;&lt;br&gt;&lt;/p&gt;" style="verticalAlign=top;align=left;overflow=fill;html=1;whiteSpace=wrap;fillColor=#fad9d5;strokeColor=#ae4132;" parent="1" vertex="1">
          <mxGeometry x="-55" y="720" width="180" height="160" as="geometry" />
        </mxCell>
        <mxCell id="ZFoCYjIveR0NVvnjtfk5-11" value="&lt;p style=&quot;margin:0px;margin-top:4px;text-align:center;&quot;&gt;&lt;b&gt;NekretnineService&lt;/b&gt;&lt;/p&gt;&lt;hr size=&quot;1&quot; style=&quot;border-style:solid;&quot;&gt;&lt;p style=&quot;margin:0px;margin-left:4px;&quot;&gt;+promijeniNaslov(nekretnina: Nekretnina, noviNaslov: String): void&amp;nbsp;&lt;/p&gt;&lt;p style=&quot;margin:0px;margin-left:4px;&quot;&gt;+promijeniOpis(nekretnina: Nekretnina, noviOpis: String): void&lt;/p&gt;&lt;p style=&quot;margin:0px;margin-left:4px;&quot;&gt;+promijeniCijenu(nekretnina: Nekretnina, novaCijena: Double): void&amp;nbsp;&lt;/p&gt;&lt;p style=&quot;margin:0px;margin-left:4px;&quot;&gt;+promijeniKvadraturu(nekretnina: Nekretnina, novaKvadratura: Double): void&lt;/p&gt;&lt;p style=&quot;margin:0px;margin-left:4px;&quot;&gt;+promijeniLokaciju(nekretnina: Nekretnina, novaLokacija: String): void&lt;/p&gt;&lt;p style=&quot;margin:0px;margin-left:4px;&quot;&gt;+promijeniBrojSoba(nekretnina: Nekretnina, brojSoba: Integer): void&lt;/p&gt;&lt;p style=&quot;margin:0px;margin-left:4px;&quot;&gt;+promijeniVrstu(novaVrsta: Kategorija): void&lt;/p&gt;" style="verticalAlign=top;align=left;overflow=fill;html=1;whiteSpace=wrap;fillColor=#fad9d5;strokeColor=#ae4132;" parent="1" vertex="1">
          <mxGeometry x="270" y="410" width="440" height="170" as="geometry" />
        </mxCell>
        <mxCell id="ixb9cVX5eEBEeo8T-icQ-2" value="&lt;p style=&quot;margin:0px;margin-top:4px;text-align:center;&quot;&gt;&lt;b&gt;Lokacija&lt;/b&gt;&lt;/p&gt;&lt;hr size=&quot;1&quot; style=&quot;border-style:solid;&quot;&gt;&lt;p style=&quot;margin: 0px 0px 0px 4px;&quot;&gt;&lt;span style=&quot;background-color: transparent; color: light-dark(rgb(0, 0, 0), rgb(255, 255, 255));&quot;&gt;-lokacijaId: Integer&amp;nbsp;&lt;/span&gt;&lt;/p&gt;&lt;p style=&quot;margin: 0px 0px 0px 4px;&quot;&gt;-nekretninaId: Integer&lt;br&gt;&lt;/p&gt;&lt;p style=&quot;margin: 0px 0px 0px 4px;&quot;&gt;-grad: String&lt;/p&gt;&lt;p style=&quot;margin: 0px 0px 0px 4px;&quot;&gt;-adresa: String&lt;/p&gt;&lt;p style=&quot;margin: 0px 0px 0px 4px;&quot;&gt;-latituda: Double&lt;/p&gt;&lt;p style=&quot;margin: 0px 0px 0px 4px;&quot;&gt;-longituda: Double&lt;/p&gt;&lt;hr size=&quot;1&quot; style=&quot;border-style:solid;&quot;&gt;&lt;p style=&quot;margin:0px;margin-left:4px;&quot;&gt;+dajKoordinate(): Pair&amp;lt;Double, Double&amp;gt;&lt;/p&gt;" style="verticalAlign=top;align=left;overflow=fill;html=1;whiteSpace=wrap;fillColor=#fad9d5;strokeColor=#ae4132;" parent="1" vertex="1">
          <mxGeometry x="-75" y="120" width="220" height="170" as="geometry" />
        </mxCell>
        <mxCell id="ixb9cVX5eEBEeo8T-icQ-6" value="" style="line;strokeWidth=1;fillColor=none;align=left;verticalAlign=middle;spacingTop=-1;spacingLeft=3;spacingRight=3;rotatable=0;labelPosition=right;points=[];portConstraint=eastwest;strokeColor=inherit;" parent="1" vertex="1">
          <mxGeometry x="-890" y="660" width="40" height="8" as="geometry" />
        </mxCell>
        <mxCell id="ixb9cVX5eEBEeo8T-icQ-9" value="" style="endArrow=none;html=1;edgeStyle=orthogonalEdgeStyle;rounded=0;entryX=0;entryY=0.5;entryDx=0;entryDy=0;" parent="1" target="ZFoCYjIveR0NVvnjtfk5-6" edge="1">
          <mxGeometry relative="1" as="geometry">
            <mxPoint x="-1100" y="720" as="sourcePoint" />
            <mxPoint x="-980" y="720" as="targetPoint" />
          </mxGeometry>
        </mxCell>
        <mxCell id="ixb9cVX5eEBEeo8T-icQ-10" value="1" style="edgeLabel;resizable=0;html=1;align=left;verticalAlign=bottom;" parent="ixb9cVX5eEBEeo8T-icQ-9" connectable="0" vertex="1">
          <mxGeometry x="-1" relative="1" as="geometry" />
        </mxCell>
        <mxCell id="ixb9cVX5eEBEeo8T-icQ-11" value="0..*&amp;nbsp;" style="edgeLabel;resizable=0;html=1;align=right;verticalAlign=bottom;" parent="ixb9cVX5eEBEeo8T-icQ-9" connectable="0" vertex="1">
          <mxGeometry x="1" relative="1" as="geometry" />
        </mxCell>
        <mxCell id="ixb9cVX5eEBEeo8T-icQ-12" value="" style="endArrow=none;html=1;endSize=12;startArrow=diamondThin;startSize=14;startFill=0;edgeStyle=orthogonalEdgeStyle;align=left;verticalAlign=bottom;rounded=0;exitX=0.477;exitY=0.995;exitDx=0;exitDy=0;exitPerimeter=0;entryX=0.472;entryY=-0.008;entryDx=0;entryDy=0;entryPerimeter=0;" parent="1" source="ZFoCYjIveR0NVvnjtfk5-6" target="ZFoCYjIveR0NVvnjtfk5-7" edge="1">
          <mxGeometry x="-1" y="3" relative="1" as="geometry">
            <mxPoint x="-883.53" y="840" as="sourcePoint" />
            <mxPoint x="-772.03" y="790" as="targetPoint" />
          </mxGeometry>
        </mxCell>
        <mxCell id="ixb9cVX5eEBEeo8T-icQ-13" value="1" style="edgeLabel;resizable=0;html=1;align=left;verticalAlign=bottom;" parent="1" connectable="0" vertex="1">
          <mxGeometry x="-861.5" y="820" as="geometry" />
        </mxCell>
        <mxCell id="ixb9cVX5eEBEeo8T-icQ-14" value="1..*" style="edgeLabel;resizable=0;html=1;align=left;verticalAlign=bottom;" parent="1" connectable="0" vertex="1">
          <mxGeometry x="-860" y="880" as="geometry" />
        </mxCell>
        <mxCell id="ixb9cVX5eEBEeo8T-icQ-15" value="" style="endArrow=none;html=1;endSize=12;startArrow=diamondThin;startSize=14;startFill=0;edgeStyle=orthogonalEdgeStyle;align=left;verticalAlign=bottom;rounded=0;" parent="1" edge="1">
          <mxGeometry x="-1" y="3" relative="1" as="geometry">
            <mxPoint x="-751.5" y="440" as="sourcePoint" />
            <mxPoint x="-911.5" y="440" as="targetPoint" />
          </mxGeometry>
        </mxCell>
        <mxCell id="ixb9cVX5eEBEeo8T-icQ-16" value="1" style="edgeLabel;resizable=0;html=1;align=left;verticalAlign=bottom;" parent="1" connectable="0" vertex="1">
          <mxGeometry x="-751.5" y="850" as="geometry">
            <mxPoint x="-20" y="-415" as="offset" />
          </mxGeometry>
        </mxCell>
        <mxCell id="ixb9cVX5eEBEeo8T-icQ-17" value="0..*&amp;nbsp;" style="edgeLabel;resizable=0;html=1;align=right;verticalAlign=bottom;" parent="1" connectable="0" vertex="1">
          <mxGeometry x="-880.0019304731525" y="435" as="geometry" />
        </mxCell>
        <mxCell id="ixb9cVX5eEBEeo8T-icQ-18" value="" style="endArrow=none;html=1;endSize=12;startArrow=diamondThin;startSize=14;startFill=0;edgeStyle=orthogonalEdgeStyle;align=left;verticalAlign=bottom;rounded=0;exitX=0.25;exitY=1;exitDx=0;exitDy=0;entryX=0.5;entryY=0;entryDx=0;entryDy=0;" parent="1" source="tWtYhvpoS7C6a5kGyOFx-1" target="ZFoCYjIveR0NVvnjtfk5-6" edge="1">
          <mxGeometry x="-1" y="3" relative="1" as="geometry">
            <mxPoint x="-920" y="585" as="sourcePoint" />
            <mxPoint x="-760" y="585" as="targetPoint" />
            <mxPoint as="offset" />
          </mxGeometry>
        </mxCell>
        <mxCell id="ixb9cVX5eEBEeo8T-icQ-19" value="1" style="edgeLabel;resizable=0;html=1;align=left;verticalAlign=bottom;" parent="1" connectable="0" vertex="1">
          <mxGeometry x="-650" y="970" as="geometry">
            <mxPoint x="-20" y="-415" as="offset" />
          </mxGeometry>
        </mxCell>
        <mxCell id="ixb9cVX5eEBEeo8T-icQ-20" value="0..*&amp;nbsp;" style="edgeLabel;resizable=0;html=1;align=right;verticalAlign=bottom;" parent="1" connectable="0" vertex="1">
          <mxGeometry x="-830.0019304731525" y="640" as="geometry" />
        </mxCell>
        <mxCell id="ixb9cVX5eEBEeo8T-icQ-21" value="" style="endArrow=none;html=1;endSize=12;startArrow=diamondThin;startSize=14;startFill=0;edgeStyle=orthogonalEdgeStyle;align=left;verticalAlign=bottom;rounded=0;exitX=0.571;exitY=1;exitDx=0;exitDy=0;exitPerimeter=0;entryX=0.448;entryY=0;entryDx=0;entryDy=0;entryPerimeter=0;" parent="1" edge="1">
          <mxGeometry x="-1" y="3" relative="1" as="geometry">
            <mxPoint x="-577.9070000000002" y="530" as="sourcePoint" />
            <mxPoint x="-577.94" y="800" as="targetPoint" />
          </mxGeometry>
        </mxCell>
        <mxCell id="ixb9cVX5eEBEeo8T-icQ-22" value="1..*&amp;nbsp;" style="edgeLabel;resizable=0;html=1;align=right;verticalAlign=bottom;" parent="1" connectable="0" vertex="1">
          <mxGeometry x="-550.0019304731525" y="790" as="geometry" />
        </mxCell>
        <mxCell id="ixb9cVX5eEBEeo8T-icQ-23" value="1" style="edgeLabel;resizable=0;html=1;align=left;verticalAlign=bottom;" parent="1" connectable="0" vertex="1">
          <mxGeometry x="-650" y="970" as="geometry">
            <mxPoint x="-20" y="-415" as="offset" />
          </mxGeometry>
        </mxCell>
        <mxCell id="ixb9cVX5eEBEeo8T-icQ-24" value="&lt;span style=&quot;color: rgb(0, 0, 0); font-family: Helvetica; font-size: 11px; font-style: normal; font-variant-ligatures: normal; font-variant-caps: normal; font-weight: 400; letter-spacing: normal; orphans: 2; text-align: left; text-indent: 0px; text-transform: none; widows: 2; word-spacing: 0px; -webkit-text-stroke-width: 0px; white-space: nowrap; background-color: rgb(255, 255, 255); text-decoration-thickness: initial; text-decoration-style: initial; text-decoration-color: initial; display: inline !important; float: none;&quot;&gt;1&lt;/span&gt;" style="text;whiteSpace=wrap;html=1;" parent="1" vertex="1">
          <mxGeometry x="-570" y="540" width="40" height="40" as="geometry" />
        </mxCell>
        <mxCell id="ixb9cVX5eEBEeo8T-icQ-25" value="" style="endArrow=none;html=1;endSize=12;startArrow=diamondThin;startSize=14;startFill=0;edgeStyle=orthogonalEdgeStyle;align=left;verticalAlign=bottom;rounded=0;exitX=0.534;exitY=-0.007;exitDx=0;exitDy=0;exitPerimeter=0;entryX=0.472;entryY=-0.008;entryDx=0;entryDy=0;entryPerimeter=0;" parent="1" source="tWtYhvpoS7C6a5kGyOFx-1" edge="1">
          <mxGeometry x="-1" y="3" relative="1" as="geometry">
            <mxPoint x="-600" y="290" as="sourcePoint" />
            <mxPoint x="-600" y="210" as="targetPoint" />
          </mxGeometry>
        </mxCell>
        <mxCell id="ixb9cVX5eEBEeo8T-icQ-26" value="&lt;span style=&quot;color: rgb(0, 0, 0); font-family: Helvetica; font-size: 11px; font-style: normal; font-variant-ligatures: normal; font-variant-caps: normal; font-weight: 400; letter-spacing: normal; orphans: 2; text-align: left; text-indent: 0px; text-transform: none; widows: 2; word-spacing: 0px; -webkit-text-stroke-width: 0px; white-space: nowrap; background-color: rgb(255, 255, 255); text-decoration-thickness: initial; text-decoration-style: initial; text-decoration-color: initial; display: inline !important; float: none;&quot;&gt;1&lt;/span&gt;" style="text;whiteSpace=wrap;html=1;" parent="1" vertex="1">
          <mxGeometry x="-590" y="210" width="40" height="40" as="geometry" />
        </mxCell>
        <mxCell id="ixb9cVX5eEBEeo8T-icQ-27" value="&lt;span style=&quot;color: rgb(0, 0, 0); font-family: Helvetica; font-size: 11px; font-style: normal; font-variant-ligatures: normal; font-variant-caps: normal; font-weight: 400; letter-spacing: normal; orphans: 2; text-align: left; text-indent: 0px; text-transform: none; widows: 2; word-spacing: 0px; -webkit-text-stroke-width: 0px; white-space: nowrap; background-color: rgb(255, 255, 255); text-decoration-thickness: initial; text-decoration-style: initial; text-decoration-color: initial; display: inline !important; float: none;&quot;&gt;1&lt;/span&gt;" style="text;whiteSpace=wrap;html=1;" parent="1" vertex="1">
          <mxGeometry x="-590" y="290" width="40" height="40" as="geometry" />
        </mxCell>
        <mxCell id="ixb9cVX5eEBEeo8T-icQ-31" value="" style="endArrow=none;html=1;edgeStyle=orthogonalEdgeStyle;rounded=0;entryX=0;entryY=0.5;entryDx=0;entryDy=0;" parent="1" target="ZFoCYjIveR0NVvnjtfk5-2" edge="1">
          <mxGeometry relative="1" as="geometry">
            <mxPoint x="-468.5" y="404.17" as="sourcePoint" />
            <mxPoint x="-339.5" y="404.17" as="targetPoint" />
          </mxGeometry>
        </mxCell>
        <mxCell id="ixb9cVX5eEBEeo8T-icQ-32" value="1..1" style="edgeLabel;resizable=0;html=1;align=left;verticalAlign=bottom;" parent="ixb9cVX5eEBEeo8T-icQ-31" connectable="0" vertex="1">
          <mxGeometry x="-1" relative="1" as="geometry" />
        </mxCell>
        <mxCell id="ixb9cVX5eEBEeo8T-icQ-33" value="1..*&amp;nbsp;" style="edgeLabel;resizable=0;html=1;align=right;verticalAlign=bottom;" parent="ixb9cVX5eEBEeo8T-icQ-31" connectable="0" vertex="1">
          <mxGeometry x="1" relative="1" as="geometry" />
        </mxCell>
        <mxCell id="ixb9cVX5eEBEeo8T-icQ-37" value="" style="line;strokeWidth=1;fillColor=none;align=left;verticalAlign=middle;spacingTop=-1;spacingLeft=3;spacingRight=3;rotatable=0;labelPosition=right;points=[];portConstraint=eastwest;strokeColor=inherit;flipH=1;flipV=1;direction=south;" parent="1" vertex="1">
          <mxGeometry x="20" y="290" width="8" height="80" as="geometry" />
        </mxCell>
        <mxCell id="ixb9cVX5eEBEeo8T-icQ-38" value="&lt;span style=&quot;color: rgb(0, 0, 0); font-family: Helvetica; font-size: 11px; font-style: normal; font-variant-ligatures: normal; font-variant-caps: normal; font-weight: 400; letter-spacing: normal; orphans: 2; text-align: left; text-indent: 0px; text-transform: none; widows: 2; word-spacing: 0px; -webkit-text-stroke-width: 0px; white-space: nowrap; background-color: rgb(255, 255, 255); text-decoration-thickness: initial; text-decoration-style: initial; text-decoration-color: initial; display: inline !important; float: none;&quot;&gt;1&lt;/span&gt;" style="text;whiteSpace=wrap;html=1;" parent="1" vertex="1">
          <mxGeometry x="28" y="290" width="40" height="40" as="geometry" />
        </mxCell>
        <mxCell id="ixb9cVX5eEBEeo8T-icQ-39" value="&lt;span style=&quot;color: rgb(0, 0, 0); font-family: Helvetica; font-size: 11px; font-style: normal; font-variant-ligatures: normal; font-variant-caps: normal; font-weight: 400; letter-spacing: normal; orphans: 2; text-align: left; text-indent: 0px; text-transform: none; widows: 2; word-spacing: 0px; -webkit-text-stroke-width: 0px; white-space: nowrap; background-color: rgb(255, 255, 255); text-decoration-thickness: initial; text-decoration-style: initial; text-decoration-color: initial; display: inline !important; float: none;&quot;&gt;1&lt;/span&gt;" style="text;whiteSpace=wrap;html=1;" parent="1" vertex="1">
          <mxGeometry x="28" y="348" width="40" height="40" as="geometry" />
        </mxCell>
        <mxCell id="ixb9cVX5eEBEeo8T-icQ-40" value="" style="endArrow=open;endSize=12;dashed=1;html=1;rounded=0;exitX=0.5;exitY=1;exitDx=0;exitDy=0;" parent="1" source="ZFoCYjIveR0NVvnjtfk5-9" target="ZFoCYjIveR0NVvnjtfk5-10" edge="1">
          <mxGeometry width="160" relative="1" as="geometry">
            <mxPoint y="650" as="sourcePoint" />
            <mxPoint x="160" y="650" as="targetPoint" />
          </mxGeometry>
        </mxCell>
        <mxCell id="ixb9cVX5eEBEeo8T-icQ-41" value="" style="endArrow=none;html=1;endSize=12;startArrow=diamondThin;startSize=14;startFill=0;edgeStyle=orthogonalEdgeStyle;align=left;verticalAlign=bottom;rounded=0;exitX=0;exitY=0.5;exitDx=0;exitDy=0;" parent="1" source="ZFoCYjIveR0NVvnjtfk5-11" edge="1">
          <mxGeometry x="-1" y="3" relative="1" as="geometry">
            <mxPoint x="340" y="494.23" as="sourcePoint" />
            <mxPoint x="180" y="494.23" as="targetPoint" />
          </mxGeometry>
        </mxCell>
        <mxCell id="ixb9cVX5eEBEeo8T-icQ-42" value="0..*&amp;nbsp;" style="edgeLabel;resizable=0;html=1;align=right;verticalAlign=bottom;" parent="1" connectable="0" vertex="1">
          <mxGeometry x="-870.0019304731525" y="445" as="geometry">
            <mxPoint x="1083" y="42" as="offset" />
          </mxGeometry>
        </mxCell>
        <mxCell id="ixb9cVX5eEBEeo8T-icQ-43" value="&lt;span style=&quot;color: rgb(0, 0, 0); font-family: Helvetica; font-size: 11px; font-style: normal; font-variant-ligatures: normal; font-variant-caps: normal; font-weight: 400; letter-spacing: normal; orphans: 2; text-align: left; text-indent: 0px; text-transform: none; widows: 2; word-spacing: 0px; -webkit-text-stroke-width: 0px; white-space: nowrap; background-color: rgb(255, 255, 255); text-decoration-thickness: initial; text-decoration-style: initial; text-decoration-color: initial; display: inline !important; float: none;&quot;&gt;1&lt;/span&gt;" style="text;whiteSpace=wrap;html=1;" parent="1" vertex="1">
          <mxGeometry x="240" y="467" width="40" height="40" as="geometry" />
        </mxCell>
        <mxCell id="ixb9cVX5eEBEeo8T-icQ-45" value="" style="line;strokeWidth=1;fillColor=none;align=left;verticalAlign=middle;spacingTop=-1;spacingLeft=3;spacingRight=3;rotatable=0;labelPosition=right;points=[];portConstraint=eastwest;strokeColor=inherit;" parent="1" vertex="1">
          <mxGeometry x="-190" y="560" width="80" height="50" as="geometry" />
        </mxCell>
        <mxCell id="ixb9cVX5eEBEeo8T-icQ-46" value="&lt;span style=&quot;color: rgb(0, 0, 0); font-family: Helvetica; font-size: 11px; font-style: normal; font-variant-ligatures: normal; font-variant-caps: normal; font-weight: 400; letter-spacing: normal; orphans: 2; text-align: left; text-indent: 0px; text-transform: none; widows: 2; word-spacing: 0px; -webkit-text-stroke-width: 0px; white-space: nowrap; background-color: rgb(255, 255, 255); text-decoration-thickness: initial; text-decoration-style: initial; text-decoration-color: initial; float: none; display: inline !important;&quot;&gt;1..*&lt;/span&gt;" style="text;whiteSpace=wrap;html=1;" parent="1" vertex="1">
          <mxGeometry x="-190" y="560" width="40" height="40" as="geometry" />
        </mxCell>
        <mxCell id="ixb9cVX5eEBEeo8T-icQ-47" value="&lt;span style=&quot;color: rgb(0, 0, 0); font-family: Helvetica; font-size: 11px; font-style: normal; font-variant-ligatures: normal; font-variant-caps: normal; font-weight: 400; letter-spacing: normal; orphans: 2; text-align: left; text-indent: 0px; text-transform: none; widows: 2; word-spacing: 0px; -webkit-text-stroke-width: 0px; white-space: nowrap; background-color: rgb(255, 255, 255); text-decoration-thickness: initial; text-decoration-style: initial; text-decoration-color: initial; float: none; display: inline !important;&quot;&gt;1..1&lt;/span&gt;" style="text;whiteSpace=wrap;html=1;" parent="1" vertex="1">
          <mxGeometry x="-137" y="560" width="40" height="40" as="geometry" />
        </mxCell>
        <mxCell id="ixb9cVX5eEBEeo8T-icQ-48" value="&lt;span style=&quot;color: rgb(0, 0, 0); font-family: Helvetica; font-size: 11px; font-style: normal; font-variant-ligatures: normal; font-variant-caps: normal; font-weight: 400; letter-spacing: normal; orphans: 2; text-align: left; text-indent: 0px; text-transform: none; widows: 2; word-spacing: 0px; -webkit-text-stroke-width: 0px; white-space: nowrap; background-color: rgb(255, 255, 255); text-decoration-thickness: initial; text-decoration-style: initial; text-decoration-color: initial; float: none; display: inline !important;&quot;&gt;1..1&lt;/span&gt;" style="text;whiteSpace=wrap;html=1;" parent="1" vertex="1">
          <mxGeometry x="-130" y="380" width="40" height="40" as="geometry" />
        </mxCell>
        <mxCell id="ixb9cVX5eEBEeo8T-icQ-49" value="&lt;span style=&quot;color: rgb(0, 0, 0); font-family: Helvetica; font-size: 11px; font-style: normal; font-variant-ligatures: normal; font-variant-caps: normal; font-weight: 400; letter-spacing: normal; orphans: 2; text-align: left; text-indent: 0px; text-transform: none; widows: 2; word-spacing: 0px; -webkit-text-stroke-width: 0px; white-space: nowrap; background-color: rgb(255, 255, 255); text-decoration-thickness: initial; text-decoration-style: initial; text-decoration-color: initial; float: none; display: inline !important;&quot;&gt;1..*&lt;/span&gt;" style="text;whiteSpace=wrap;html=1;" parent="1" vertex="1">
          <mxGeometry x="-190" y="380" width="40" height="40" as="geometry" />
        </mxCell>
        <mxCell id="ixb9cVX5eEBEeo8T-icQ-51" value="" style="line;strokeWidth=1;fillColor=none;align=left;verticalAlign=middle;spacingTop=-1;spacingLeft=3;spacingRight=3;rotatable=0;labelPosition=right;points=[];portConstraint=eastwest;strokeColor=inherit;" parent="1" vertex="1">
          <mxGeometry x="-190" y="385" width="80" height="50" as="geometry" />
        </mxCell>
        <mxCell id="izCSbGVo8DyJcmBQW2oV-1" value="DataContext" style="swimlane;fontStyle=0;childLayout=stackLayout;horizontal=1;startSize=26;fillColor=#b0e3e6;horizontalStack=0;resizeParent=1;resizeParentMax=0;resizeLast=0;collapsible=1;marginBottom=0;whiteSpace=wrap;html=1;strokeColor=#0e8088;" parent="1" vertex="1">
          <mxGeometry x="-410" y="-450" width="390" height="312" as="geometry" />
        </mxCell>
        <mxCell id="izCSbGVo8DyJcmBQW2oV-2" value="+korisnici: DbSet&amp;lt;Korisnik&amp;gt;" style="text;strokeColor=#0e8088;fillColor=#b0e3e6;align=left;verticalAlign=top;spacingLeft=4;spacingRight=4;overflow=hidden;rotatable=0;points=[[0,0.5],[1,0.5]];portConstraint=eastwest;whiteSpace=wrap;html=1;" parent="izCSbGVo8DyJcmBQW2oV-1" vertex="1">
          <mxGeometry y="26" width="390" height="26" as="geometry" />
        </mxCell>
        <mxCell id="izCSbGVo8DyJcmBQW2oV-3" value="+nekretnine: DbSet&amp;lt;Nekretnina&amp;gt;" style="text;strokeColor=#0e8088;fillColor=#b0e3e6;align=left;verticalAlign=top;spacingLeft=4;spacingRight=4;overflow=hidden;rotatable=0;points=[[0,0.5],[1,0.5]];portConstraint=eastwest;whiteSpace=wrap;html=1;" parent="izCSbGVo8DyJcmBQW2oV-1" vertex="1">
          <mxGeometry y="52" width="390" height="26" as="geometry" />
        </mxCell>
        <mxCell id="izCSbGVo8DyJcmBQW2oV-4" value="+oglasi: DbSet&amp;lt;Oglas&amp;gt;" style="text;strokeColor=#0e8088;fillColor=#b0e3e6;align=left;verticalAlign=top;spacingLeft=4;spacingRight=4;overflow=hidden;rotatable=0;points=[[0,0.5],[1,0.5]];portConstraint=eastwest;whiteSpace=wrap;html=1;" parent="izCSbGVo8DyJcmBQW2oV-1" vertex="1">
          <mxGeometry y="78" width="390" height="26" as="geometry" />
        </mxCell>
        <mxCell id="izCSbGVo8DyJcmBQW2oV-5" value="+poruke: DbSet&amp;lt;Poruka&amp;gt;&amp;nbsp;" style="text;strokeColor=#0e8088;fillColor=#b0e3e6;align=left;verticalAlign=top;spacingLeft=4;spacingRight=4;overflow=hidden;rotatable=0;points=[[0,0.5],[1,0.5]];portConstraint=eastwest;whiteSpace=wrap;html=1;" parent="izCSbGVo8DyJcmBQW2oV-1" vertex="1">
          <mxGeometry y="104" width="390" height="26" as="geometry" />
        </mxCell>
        <mxCell id="izCSbGVo8DyJcmBQW2oV-6" value="+obavjestenja: DbSet&amp;lt;Obavjestenje&amp;gt;&amp;nbsp;" style="text;strokeColor=#0e8088;fillColor=#b0e3e6;align=left;verticalAlign=top;spacingLeft=4;spacingRight=4;overflow=hidden;rotatable=0;points=[[0,0.5],[1,0.5]];portConstraint=eastwest;whiteSpace=wrap;html=1;" parent="izCSbGVo8DyJcmBQW2oV-1" vertex="1">
          <mxGeometry y="130" width="390" height="26" as="geometry" />
        </mxCell>
        <mxCell id="izCSbGVo8DyJcmBQW2oV-7" value="+lokacije: DbSet&amp;lt;Lokacija&amp;gt;" style="text;strokeColor=#0e8088;fillColor=#b0e3e6;align=left;verticalAlign=top;spacingLeft=4;spacingRight=4;overflow=hidden;rotatable=0;points=[[0,0.5],[1,0.5]];portConstraint=eastwest;whiteSpace=wrap;html=1;" parent="izCSbGVo8DyJcmBQW2oV-1" vertex="1">
          <mxGeometry y="156" width="390" height="26" as="geometry" />
        </mxCell>
        <mxCell id="izCSbGVo8DyJcmBQW2oV-8" value="+kriteriji: DbSet&amp;lt;Kriterij&amp;gt;&amp;nbsp;" style="text;strokeColor=#0e8088;fillColor=#b0e3e6;align=left;verticalAlign=top;spacingLeft=4;spacingRight=4;overflow=hidden;rotatable=0;points=[[0,0.5],[1,0.5]];portConstraint=eastwest;whiteSpace=wrap;html=1;" parent="izCSbGVo8DyJcmBQW2oV-1" vertex="1">
          <mxGeometry y="182" width="390" height="26" as="geometry" />
        </mxCell>
        <mxCell id="izCSbGVo8DyJcmBQW2oV-9" value="+korisnikNekretnine: DbSet&amp;lt;Korisnik_Nekretnina&amp;gt;&amp;nbsp;" style="text;strokeColor=#0e8088;fillColor=#b0e3e6;align=left;verticalAlign=top;spacingLeft=4;spacingRight=4;overflow=hidden;rotatable=0;points=[[0,0.5],[1,0.5]];portConstraint=eastwest;whiteSpace=wrap;html=1;" parent="izCSbGVo8DyJcmBQW2oV-1" vertex="1">
          <mxGeometry y="208" width="390" height="26" as="geometry" />
        </mxCell>
        <mxCell id="izCSbGVo8DyJcmBQW2oV-10" value="+vlasnikNekretnine: DbSet&amp;lt;Vlasnik_Nekretnina&amp;gt;&amp;nbsp;" style="text;strokeColor=#0e8088;fillColor=#b0e3e6;align=left;verticalAlign=top;spacingLeft=4;spacingRight=4;overflow=hidden;rotatable=0;points=[[0,0.5],[1,0.5]];portConstraint=eastwest;whiteSpace=wrap;html=1;" parent="izCSbGVo8DyJcmBQW2oV-1" vertex="1">
          <mxGeometry y="234" width="390" height="26" as="geometry" />
        </mxCell>
        <mxCell id="izCSbGVo8DyJcmBQW2oV-12" value="+filteri: DbSet&amp;lt;FilterNekretnina&amp;gt;" style="text;strokeColor=#0e8088;fillColor=#b0e3e6;align=left;verticalAlign=top;spacingLeft=4;spacingRight=4;overflow=hidden;rotatable=0;points=[[0,0.5],[1,0.5]];portConstraint=eastwest;whiteSpace=wrap;html=1;" parent="izCSbGVo8DyJcmBQW2oV-1" vertex="1">
          <mxGeometry y="260" width="390" height="26" as="geometry" />
        </mxCell>
        <mxCell id="izCSbGVo8DyJcmBQW2oV-17" value="+sesije: DbSet&amp;lt;Sesija&amp;gt;" style="text;strokeColor=#0e8088;fillColor=#b0e3e6;align=left;verticalAlign=top;spacingLeft=4;spacingRight=4;overflow=hidden;rotatable=0;points=[[0,0.5],[1,0.5]];portConstraint=eastwest;whiteSpace=wrap;html=1;" parent="izCSbGVo8DyJcmBQW2oV-1" vertex="1">
          <mxGeometry y="286" width="390" height="26" as="geometry" />
        </mxCell>
        <mxCell id="izCSbGVo8DyJcmBQW2oV-11" value="" style="endArrow=diamondThin;endFill=1;endSize=24;html=1;rounded=0;exitX=0.285;exitY=1.008;exitDx=0;exitDy=0;exitPerimeter=0;" parent="1" source="ZFoCYjIveR0NVvnjtfk5-7" edge="1">
          <mxGeometry width="160" relative="1" as="geometry">
            <mxPoint x="-870" y="1070" as="sourcePoint" />
            <mxPoint x="-410" y="-424" as="targetPoint" />
            <Array as="points">
              <mxPoint x="-900" y="1070" />
              <mxPoint x="-1620" y="1070" />
              <mxPoint x="-1620" y="540" />
              <mxPoint x="-1620" y="-424" />
              <mxPoint x="-718.5" y="-423.5" />
            </Array>
          </mxGeometry>
        </mxCell>
        <mxCell id="izCSbGVo8DyJcmBQW2oV-13" value="" style="endArrow=diamondThin;endFill=1;endSize=24;html=1;rounded=0;exitX=0.009;exitY=0.87;exitDx=0;exitDy=0;exitPerimeter=0;" parent="1" source="ZFoCYjIveR0NVvnjtfk5-6" edge="1">
          <mxGeometry width="160" relative="1" as="geometry">
            <mxPoint x="-1040" y="760" as="sourcePoint" />
            <mxPoint x="-410" y="-370" as="targetPoint" />
            <Array as="points">
              <mxPoint x="-1040" y="780" />
              <mxPoint x="-1040" y="900" />
              <mxPoint x="-1560" y="900" />
              <mxPoint x="-1560" y="510" />
              <mxPoint x="-1560" y="-370" />
              <mxPoint x="-718.5" y="-369.5" />
            </Array>
          </mxGeometry>
        </mxCell>
        <mxCell id="izCSbGVo8DyJcmBQW2oV-14" value="" style="endArrow=diamondThin;endFill=1;endSize=24;html=1;rounded=0;exitX=0.25;exitY=0;exitDx=0;exitDy=0;" parent="1" source="ZFoCYjIveR0NVvnjtfk5-5" edge="1">
          <mxGeometry width="160" relative="1" as="geometry">
            <mxPoint x="-790" y="-9.5" as="sourcePoint" />
            <mxPoint x="-410" y="-300" as="targetPoint" />
            <Array as="points">
              <mxPoint x="-1280" y="50" />
              <mxPoint x="-1280" y="-300" />
              <mxPoint x="-722" y="-299.5" />
            </Array>
          </mxGeometry>
        </mxCell>
        <mxCell id="izCSbGVo8DyJcmBQW2oV-15" value="" style="endArrow=diamondThin;endFill=1;endSize=24;html=1;rounded=0;exitX=0.371;exitY=0.001;exitDx=0;exitDy=0;exitPerimeter=0;" parent="1" source="ZFoCYjIveR0NVvnjtfk5-4" edge="1">
          <mxGeometry width="160" relative="1" as="geometry">
            <mxPoint x="-1050" y="340" as="sourcePoint" />
            <mxPoint x="-410" y="-260" as="targetPoint" />
            <Array as="points">
              <mxPoint x="-1050" y="60" />
              <mxPoint x="-1050" y="-260" />
              <mxPoint x="-718.5" y="-259.5" />
            </Array>
          </mxGeometry>
        </mxCell>
        <mxCell id="izCSbGVo8DyJcmBQW2oV-16" value="" style="endArrow=diamondThin;endFill=1;endSize=24;html=1;rounded=0;exitX=0.476;exitY=-0.014;exitDx=0;exitDy=0;exitPerimeter=0;" parent="1" source="ZFoCYjIveR0NVvnjtfk5-1" edge="1">
          <mxGeometry width="160" relative="1" as="geometry">
            <mxPoint x="-620" y="60" as="sourcePoint" />
            <mxPoint x="-410" y="-200" as="targetPoint" />
            <Array as="points">
              <mxPoint x="-620" y="-70" />
              <mxPoint x="-620" y="-200" />
            </Array>
          </mxGeometry>
        </mxCell>
        <mxCell id="izCSbGVo8DyJcmBQW2oV-18" value="" style="endArrow=diamondThin;endFill=1;endSize=24;html=1;rounded=0;" parent="1" edge="1">
          <mxGeometry width="160" relative="1" as="geometry">
            <mxPoint x="-468.5" y="340" as="sourcePoint" />
            <mxPoint x="-360" y="-140" as="targetPoint" />
            <Array as="points">
              <mxPoint x="-360" y="340" />
              <mxPoint x="-360" y="280" />
            </Array>
          </mxGeometry>
        </mxCell>
        <mxCell id="izCSbGVo8DyJcmBQW2oV-19" value="" style="endArrow=diamondThin;endFill=1;endSize=24;html=1;rounded=0;exitX=0.605;exitY=0.045;exitDx=0;exitDy=0;exitPerimeter=0;" parent="1" edge="1">
          <mxGeometry width="160" relative="1" as="geometry">
            <mxPoint x="-280.2699999999999" y="359.9999999999997" as="sourcePoint" />
            <mxPoint x="-281" y="-140" as="targetPoint" />
            <Array as="points">
              <mxPoint x="-280.67" y="332.95" />
              <mxPoint x="-280.67" y="272.95" />
            </Array>
          </mxGeometry>
        </mxCell>
        <mxCell id="izCSbGVo8DyJcmBQW2oV-20" value="" style="endArrow=diamondThin;endFill=1;endSize=24;html=1;rounded=0;exitX=0.08;exitY=-0.001;exitDx=0;exitDy=0;exitPerimeter=0;entryX=0.897;entryY=1;entryDx=0;entryDy=0;entryPerimeter=0;" parent="1" source="ixb9cVX5eEBEeo8T-icQ-2" target="izCSbGVo8DyJcmBQW2oV-17" edge="1">
          <mxGeometry width="160" relative="1" as="geometry">
            <mxPoint x="-55" y="112" as="sourcePoint" />
            <mxPoint x="-55" y="-138" as="targetPoint" />
            <Array as="points" />
          </mxGeometry>
        </mxCell>
        <mxCell id="izCSbGVo8DyJcmBQW2oV-21" value="" style="endArrow=diamondThin;endFill=1;endSize=24;html=1;rounded=0;exitX=0.605;exitY=0.045;exitDx=0;exitDy=0;exitPerimeter=0;" parent="1" edge="1">
          <mxGeometry width="160" relative="1" as="geometry">
            <mxPoint x="170.73000000000013" y="369.9999999999997" as="sourcePoint" />
            <mxPoint x="-20" y="-162" as="targetPoint" />
            <Array as="points">
              <mxPoint x="170.33000000000004" y="342.95" />
              <mxPoint x="170" y="-160" />
            </Array>
          </mxGeometry>
        </mxCell>
        <mxCell id="izCSbGVo8DyJcmBQW2oV-22" value="" style="endArrow=diamondThin;endFill=1;endSize=24;html=1;rounded=0;exitX=0.599;exitY=0.993;exitDx=0;exitDy=0;exitPerimeter=0;entryX=1;entryY=0.5;entryDx=0;entryDy=0;" parent="1" source="ZFoCYjIveR0NVvnjtfk5-3" target="izCSbGVo8DyJcmBQW2oV-9" edge="1">
          <mxGeometry width="160" relative="1" as="geometry">
            <mxPoint x="-330" y="920" as="sourcePoint" />
            <mxPoint x="760" y="-320" as="targetPoint" />
            <Array as="points">
              <mxPoint x="-260" y="920" />
              <mxPoint x="680" y="920" />
              <mxPoint x="760" y="920" />
              <mxPoint x="760" y="-230" />
            </Array>
          </mxGeometry>
        </mxCell>
        <mxCell id="izCSbGVo8DyJcmBQW2oV-23" value="" style="endArrow=diamondThin;endFill=1;endSize=24;html=1;rounded=0;entryX=1.005;entryY=-0.028;entryDx=0;entryDy=0;entryPerimeter=0;" parent="1" target="izCSbGVo8DyJcmBQW2oV-6" edge="1">
          <mxGeometry width="160" relative="1" as="geometry">
            <mxPoint x="-467" y="960" as="sourcePoint" />
            <mxPoint x="790" y="-410" as="targetPoint" />
            <Array as="points">
              <mxPoint x="-80" y="960" />
              <mxPoint x="400" y="960" />
              <mxPoint x="790" y="960" />
              <mxPoint x="790" y="-320" />
            </Array>
          </mxGeometry>
        </mxCell>
        <mxCell id="izCSbGVo8DyJcmBQW2oV-24" value="KorisnikController" style="swimlane;fontStyle=0;childLayout=stackLayout;horizontal=1;startSize=26;fillColor=#b1ddf0;horizontalStack=0;resizeParent=1;resizeParentMax=0;resizeLast=0;collapsible=1;marginBottom=0;whiteSpace=wrap;html=1;strokeColor=#10739e;" parent="1" vertex="1">
          <mxGeometry x="-50" y="-718" width="240" height="168" as="geometry" />
        </mxCell>
        <mxCell id="izCSbGVo8DyJcmBQW2oV-25" value="-dataContext: DataContext" style="text;strokeColor=#10739e;fillColor=#b1ddf0;align=left;verticalAlign=top;spacingLeft=4;spacingRight=4;overflow=hidden;rotatable=0;points=[[0,0.5],[1,0.5]];portConstraint=eastwest;whiteSpace=wrap;html=1;" parent="izCSbGVo8DyJcmBQW2oV-24" vertex="1">
          <mxGeometry y="26" width="240" height="26" as="geometry" />
        </mxCell>
        <mxCell id="izCSbGVo8DyJcmBQW2oV-105" value="" style="line;strokeWidth=1;fillColor=#b1ddf0;align=left;verticalAlign=middle;spacingTop=-1;spacingLeft=3;spacingRight=3;rotatable=0;labelPosition=right;points=[];portConstraint=eastwest;strokeColor=#10739e;" parent="izCSbGVo8DyJcmBQW2oV-24" vertex="1">
          <mxGeometry y="52" width="240" height="8" as="geometry" />
        </mxCell>
        <mxCell id="izCSbGVo8DyJcmBQW2oV-26" value="+prikaziKorisnika(): KorisnikView" style="text;strokeColor=#10739e;fillColor=#b1ddf0;align=left;verticalAlign=top;spacingLeft=4;spacingRight=4;overflow=hidden;rotatable=0;points=[[0,0.5],[1,0.5]];portConstraint=eastwest;whiteSpace=wrap;html=1;" parent="izCSbGVo8DyJcmBQW2oV-24" vertex="1">
          <mxGeometry y="60" width="240" height="26" as="geometry" />
        </mxCell>
        <mxCell id="izCSbGVo8DyJcmBQW2oV-27" value="+dodajKorisnika(): KorisnikCreateView" style="text;strokeColor=#10739e;fillColor=#b1ddf0;align=left;verticalAlign=top;spacingLeft=4;spacingRight=4;overflow=hidden;rotatable=0;points=[[0,0.5],[1,0.5]];portConstraint=eastwest;whiteSpace=wrap;html=1;" parent="izCSbGVo8DyJcmBQW2oV-24" vertex="1">
          <mxGeometry y="86" width="240" height="26" as="geometry" />
        </mxCell>
        <mxCell id="izCSbGVo8DyJcmBQW2oV-28" value="+izbrisiKorisnika(): KorisnikView" style="text;strokeColor=#10739e;fillColor=#b1ddf0;align=left;verticalAlign=top;spacingLeft=4;spacingRight=4;overflow=hidden;rotatable=0;points=[[0,0.5],[1,0.5]];portConstraint=eastwest;whiteSpace=wrap;html=1;" parent="izCSbGVo8DyJcmBQW2oV-24" vertex="1">
          <mxGeometry y="112" width="240" height="26" as="geometry" />
        </mxCell>
        <mxCell id="izCSbGVo8DyJcmBQW2oV-29" value="+modificirajKorisnika(): KorisnikEditView" style="text;strokeColor=#10739e;fillColor=#b1ddf0;align=left;verticalAlign=top;spacingLeft=4;spacingRight=4;overflow=hidden;rotatable=0;points=[[0,0.5],[1,0.5]];portConstraint=eastwest;whiteSpace=wrap;html=1;" parent="izCSbGVo8DyJcmBQW2oV-24" vertex="1">
          <mxGeometry y="138" width="240" height="30" as="geometry" />
        </mxCell>
        <mxCell id="izCSbGVo8DyJcmBQW2oV-30" value="NekretninaCreateView" style="swimlane;fontStyle=0;childLayout=stackLayout;horizontal=1;startSize=26;fillColor=#cce5ff;horizontalStack=0;resizeParent=1;resizeParentMax=0;resizeLast=0;collapsible=1;marginBottom=0;whiteSpace=wrap;html=1;strokeColor=#36393d;" parent="1" vertex="1">
          <mxGeometry x="-390" y="-913" width="140" height="52" as="geometry" />
        </mxCell>
        <mxCell id="izCSbGVo8DyJcmBQW2oV-34" value="NekretninaView" style="swimlane;fontStyle=0;childLayout=stackLayout;horizontal=1;startSize=26;fillColor=#cce5ff;horizontalStack=0;resizeParent=1;resizeParentMax=0;resizeLast=0;collapsible=1;marginBottom=0;whiteSpace=wrap;html=1;strokeColor=#36393d;" parent="1" vertex="1">
          <mxGeometry x="-510" y="-915" width="100" height="50" as="geometry" />
        </mxCell>
        <mxCell id="izCSbGVo8DyJcmBQW2oV-35" value="NekretninaEditView" style="swimlane;fontStyle=0;childLayout=stackLayout;horizontal=1;startSize=26;fillColor=#cce5ff;horizontalStack=0;resizeParent=1;resizeParentMax=0;resizeLast=0;collapsible=1;marginBottom=0;whiteSpace=wrap;html=1;strokeColor=#36393d;" parent="1" vertex="1">
          <mxGeometry x="-230" y="-912" width="120" height="50" as="geometry" />
        </mxCell>
        <mxCell id="izCSbGVo8DyJcmBQW2oV-37" value="NekretninaController" style="swimlane;fontStyle=0;childLayout=stackLayout;horizontal=1;startSize=26;fillColor=#b1ddf0;horizontalStack=0;resizeParent=1;resizeParentMax=0;resizeLast=0;collapsible=1;marginBottom=0;whiteSpace=wrap;html=1;strokeColor=#10739e;" parent="1" vertex="1">
          <mxGeometry x="-430" y="-718" width="253" height="168" as="geometry" />
        </mxCell>
        <mxCell id="izCSbGVo8DyJcmBQW2oV-38" value="-dataContext: DataContext" style="text;strokeColor=#10739e;fillColor=#b1ddf0;align=left;verticalAlign=top;spacingLeft=4;spacingRight=4;overflow=hidden;rotatable=0;points=[[0,0.5],[1,0.5]];portConstraint=eastwest;whiteSpace=wrap;html=1;" parent="izCSbGVo8DyJcmBQW2oV-37" vertex="1">
          <mxGeometry y="26" width="253" height="26" as="geometry" />
        </mxCell>
        <mxCell id="izCSbGVo8DyJcmBQW2oV-108" value="" style="line;strokeWidth=1;fillColor=#b1ddf0;align=left;verticalAlign=middle;spacingTop=-1;spacingLeft=3;spacingRight=3;rotatable=0;labelPosition=right;points=[];portConstraint=eastwest;strokeColor=#10739e;" parent="izCSbGVo8DyJcmBQW2oV-37" vertex="1">
          <mxGeometry y="52" width="253" height="8" as="geometry" />
        </mxCell>
        <mxCell id="izCSbGVo8DyJcmBQW2oV-39" value="+prikaziNekretninu(): NekretninaView" style="text;strokeColor=#10739e;fillColor=#b1ddf0;align=left;verticalAlign=top;spacingLeft=4;spacingRight=4;overflow=hidden;rotatable=0;points=[[0,0.5],[1,0.5]];portConstraint=eastwest;whiteSpace=wrap;html=1;" parent="izCSbGVo8DyJcmBQW2oV-37" vertex="1">
          <mxGeometry y="60" width="253" height="26" as="geometry" />
        </mxCell>
        <mxCell id="izCSbGVo8DyJcmBQW2oV-40" value="+dodajNekretninu(): NekretninaCreateView" style="text;strokeColor=#10739e;fillColor=#b1ddf0;align=left;verticalAlign=top;spacingLeft=4;spacingRight=4;overflow=hidden;rotatable=0;points=[[0,0.5],[1,0.5]];portConstraint=eastwest;whiteSpace=wrap;html=1;" parent="izCSbGVo8DyJcmBQW2oV-37" vertex="1">
          <mxGeometry y="86" width="253" height="26" as="geometry" />
        </mxCell>
        <mxCell id="izCSbGVo8DyJcmBQW2oV-41" value="+izbrisiNekretninu(): NekretninaView" style="text;strokeColor=#10739e;fillColor=#b1ddf0;align=left;verticalAlign=top;spacingLeft=4;spacingRight=4;overflow=hidden;rotatable=0;points=[[0,0.5],[1,0.5]];portConstraint=eastwest;whiteSpace=wrap;html=1;" parent="izCSbGVo8DyJcmBQW2oV-37" vertex="1">
          <mxGeometry y="112" width="253" height="26" as="geometry" />
        </mxCell>
        <mxCell id="izCSbGVo8DyJcmBQW2oV-42" value="+modificirajNekretninu(): NekretninaEditView" style="text;strokeColor=#10739e;fillColor=#b1ddf0;align=left;verticalAlign=top;spacingLeft=4;spacingRight=4;overflow=hidden;rotatable=0;points=[[0,0.5],[1,0.5]];portConstraint=eastwest;whiteSpace=wrap;html=1;" parent="izCSbGVo8DyJcmBQW2oV-37" vertex="1">
          <mxGeometry y="138" width="253" height="30" as="geometry" />
        </mxCell>
        <mxCell id="izCSbGVo8DyJcmBQW2oV-43" value="KorisnikCreateView" style="swimlane;fontStyle=0;childLayout=stackLayout;horizontal=1;startSize=26;fillColor=#cce5ff;horizontalStack=0;resizeParent=1;resizeParentMax=0;resizeLast=0;collapsible=1;marginBottom=0;whiteSpace=wrap;html=1;strokeColor=#36393d;" parent="1" vertex="1">
          <mxGeometry x="190" y="-915" width="140" height="52" as="geometry" />
        </mxCell>
        <mxCell id="izCSbGVo8DyJcmBQW2oV-44" value="KorisnikView" style="swimlane;fontStyle=0;childLayout=stackLayout;horizontal=1;startSize=26;fillColor=#cce5ff;horizontalStack=0;resizeParent=1;resizeParentMax=0;resizeLast=0;collapsible=1;marginBottom=0;whiteSpace=wrap;html=1;strokeColor=#36393d;" parent="1" vertex="1">
          <mxGeometry x="-75" y="-912" width="90" height="52" as="geometry" />
        </mxCell>
        <mxCell id="izCSbGVo8DyJcmBQW2oV-45" value="KorisnikEditView" style="swimlane;fontStyle=0;childLayout=stackLayout;horizontal=1;startSize=26;fillColor=#cce5ff;horizontalStack=0;resizeParent=1;resizeParentMax=0;resizeLast=0;collapsible=1;marginBottom=0;whiteSpace=wrap;html=1;strokeColor=#36393d;" parent="1" vertex="1">
          <mxGeometry x="40" y="-915" width="130" height="50" as="geometry" />
        </mxCell>
        <mxCell id="izCSbGVo8DyJcmBQW2oV-46" value="OglasController" style="swimlane;fontStyle=0;childLayout=stackLayout;horizontal=1;startSize=26;fillColor=#b1ddf0;horizontalStack=0;resizeParent=1;resizeParentMax=0;resizeLast=0;collapsible=1;marginBottom=0;whiteSpace=wrap;html=1;strokeColor=#10739e;" parent="1" vertex="1">
          <mxGeometry x="-1030" y="-748" width="220" height="198" as="geometry" />
        </mxCell>
        <mxCell id="izCSbGVo8DyJcmBQW2oV-47" value="-dataContext: DataContext" style="text;strokeColor=#10739e;fillColor=#b1ddf0;align=left;verticalAlign=top;spacingLeft=4;spacingRight=4;overflow=hidden;rotatable=0;points=[[0,0.5],[1,0.5]];portConstraint=eastwest;whiteSpace=wrap;html=1;" parent="izCSbGVo8DyJcmBQW2oV-46" vertex="1">
          <mxGeometry y="26" width="220" height="26" as="geometry" />
        </mxCell>
        <mxCell id="izCSbGVo8DyJcmBQW2oV-110" value="" style="line;strokeWidth=1;fillColor=#b1ddf0;align=left;verticalAlign=middle;spacingTop=-1;spacingLeft=3;spacingRight=3;rotatable=0;labelPosition=right;points=[];portConstraint=eastwest;strokeColor=#10739e;" parent="izCSbGVo8DyJcmBQW2oV-46" vertex="1">
          <mxGeometry y="52" width="220" height="8" as="geometry" />
        </mxCell>
        <mxCell id="izCSbGVo8DyJcmBQW2oV-48" value="+prikaziOglas(): OglasView" style="text;strokeColor=#10739e;fillColor=#b1ddf0;align=left;verticalAlign=top;spacingLeft=4;spacingRight=4;overflow=hidden;rotatable=0;points=[[0,0.5],[1,0.5]];portConstraint=eastwest;whiteSpace=wrap;html=1;" parent="izCSbGVo8DyJcmBQW2oV-46" vertex="1">
          <mxGeometry y="60" width="220" height="26" as="geometry" />
        </mxCell>
        <mxCell id="izCSbGVo8DyJcmBQW2oV-49" value="+dodajOglas(): OglasCreateView" style="text;strokeColor=#10739e;fillColor=#b1ddf0;align=left;verticalAlign=top;spacingLeft=4;spacingRight=4;overflow=hidden;rotatable=0;points=[[0,0.5],[1,0.5]];portConstraint=eastwest;whiteSpace=wrap;html=1;" parent="izCSbGVo8DyJcmBQW2oV-46" vertex="1">
          <mxGeometry y="86" width="220" height="26" as="geometry" />
        </mxCell>
        <mxCell id="izCSbGVo8DyJcmBQW2oV-50" value="+izbrisiOglas(): OglasView" style="text;strokeColor=#10739e;fillColor=#b1ddf0;align=left;verticalAlign=top;spacingLeft=4;spacingRight=4;overflow=hidden;rotatable=0;points=[[0,0.5],[1,0.5]];portConstraint=eastwest;whiteSpace=wrap;html=1;" parent="izCSbGVo8DyJcmBQW2oV-46" vertex="1">
          <mxGeometry y="112" width="220" height="26" as="geometry" />
        </mxCell>
        <mxCell id="izCSbGVo8DyJcmBQW2oV-51" value="+modificirajOglas(): OglasEditView" style="text;strokeColor=#10739e;fillColor=#b1ddf0;align=left;verticalAlign=top;spacingLeft=4;spacingRight=4;overflow=hidden;rotatable=0;points=[[0,0.5],[1,0.5]];portConstraint=eastwest;whiteSpace=wrap;html=1;" parent="izCSbGVo8DyJcmBQW2oV-46" vertex="1">
          <mxGeometry y="138" width="220" height="30" as="geometry" />
        </mxCell>
        <mxCell id="izCSbGVo8DyJcmBQW2oV-52" value="+prikaziStatistikuOglasa(): OglasView" style="text;strokeColor=#10739e;fillColor=#b1ddf0;align=left;verticalAlign=top;spacingLeft=4;spacingRight=4;overflow=hidden;rotatable=0;points=[[0,0.5],[1,0.5]];portConstraint=eastwest;whiteSpace=wrap;html=1;" parent="izCSbGVo8DyJcmBQW2oV-46" vertex="1">
          <mxGeometry y="168" width="220" height="30" as="geometry" />
        </mxCell>
        <mxCell id="izCSbGVo8DyJcmBQW2oV-53" value="OglasCreateView" style="swimlane;fontStyle=0;childLayout=stackLayout;horizontal=1;startSize=26;fillColor=#cce5ff;horizontalStack=0;resizeParent=1;resizeParentMax=0;resizeLast=0;collapsible=1;marginBottom=0;whiteSpace=wrap;html=1;strokeColor=#36393d;" parent="1" vertex="1">
          <mxGeometry x="-858.5" y="-912" width="100" height="52" as="geometry" />
        </mxCell>
        <mxCell id="izCSbGVo8DyJcmBQW2oV-54" value="OglasEditView" style="swimlane;fontStyle=0;childLayout=stackLayout;horizontal=1;startSize=26;fillColor=#cce5ff;horizontalStack=0;resizeParent=1;resizeParentMax=0;resizeLast=0;collapsible=1;marginBottom=0;whiteSpace=wrap;html=1;strokeColor=#36393d;" parent="1" vertex="1">
          <mxGeometry x="-968.5" y="-911" width="85" height="50" as="geometry" />
        </mxCell>
        <mxCell id="izCSbGVo8DyJcmBQW2oV-58" value="OglasView" style="swimlane;fontStyle=0;childLayout=stackLayout;horizontal=1;startSize=26;fillColor=#cce5ff;horizontalStack=0;resizeParent=1;resizeParentMax=0;resizeLast=0;collapsible=1;marginBottom=0;whiteSpace=wrap;html=1;strokeColor=#36393d;" parent="1" vertex="1">
          <mxGeometry x="-1078.5" y="-911" width="90" height="50" as="geometry" />
        </mxCell>
        <mxCell id="izCSbGVo8DyJcmBQW2oV-60" value="PorukaController" style="swimlane;fontStyle=0;childLayout=stackLayout;horizontal=1;startSize=26;fillColor=#b1ddf0;horizontalStack=0;resizeParent=1;resizeParentMax=0;resizeLast=0;collapsible=1;marginBottom=0;whiteSpace=wrap;html=1;strokeColor=#10739e;" parent="1" vertex="1">
          <mxGeometry x="-740" y="-700" width="220" height="116" as="geometry" />
        </mxCell>
        <mxCell id="izCSbGVo8DyJcmBQW2oV-61" value="-dataContext: DataContext" style="text;strokeColor=#10739e;fillColor=#b1ddf0;align=left;verticalAlign=top;spacingLeft=4;spacingRight=4;overflow=hidden;rotatable=0;points=[[0,0.5],[1,0.5]];portConstraint=eastwest;whiteSpace=wrap;html=1;" parent="izCSbGVo8DyJcmBQW2oV-60" vertex="1">
          <mxGeometry y="26" width="220" height="26" as="geometry" />
        </mxCell>
        <mxCell id="izCSbGVo8DyJcmBQW2oV-111" value="" style="line;strokeWidth=1;fillColor=#b1ddf0;align=left;verticalAlign=middle;spacingTop=-1;spacingLeft=3;spacingRight=3;rotatable=0;labelPosition=right;points=[];portConstraint=eastwest;strokeColor=#10739e;" parent="izCSbGVo8DyJcmBQW2oV-60" vertex="1">
          <mxGeometry y="52" width="220" height="8" as="geometry" />
        </mxCell>
        <mxCell id="izCSbGVo8DyJcmBQW2oV-62" value="+prikaziPoruku(): PorukaView" style="text;strokeColor=#10739e;fillColor=#b1ddf0;align=left;verticalAlign=top;spacingLeft=4;spacingRight=4;overflow=hidden;rotatable=0;points=[[0,0.5],[1,0.5]];portConstraint=eastwest;whiteSpace=wrap;html=1;" parent="izCSbGVo8DyJcmBQW2oV-60" vertex="1">
          <mxGeometry y="60" width="220" height="26" as="geometry" />
        </mxCell>
        <mxCell id="izCSbGVo8DyJcmBQW2oV-66" value="+posaljiPoruku(): void" style="text;strokeColor=#10739e;fillColor=#b1ddf0;align=left;verticalAlign=top;spacingLeft=4;spacingRight=4;overflow=hidden;rotatable=0;points=[[0,0.5],[1,0.5]];portConstraint=eastwest;whiteSpace=wrap;html=1;" parent="izCSbGVo8DyJcmBQW2oV-60" vertex="1">
          <mxGeometry y="86" width="220" height="30" as="geometry" />
        </mxCell>
        <mxCell id="izCSbGVo8DyJcmBQW2oV-68" value="PorukaView" style="swimlane;fontStyle=0;childLayout=stackLayout;horizontal=1;startSize=26;fillColor=#cce5ff;horizontalStack=0;resizeParent=1;resizeParentMax=0;resizeLast=0;collapsible=1;marginBottom=0;whiteSpace=wrap;html=1;strokeColor=#36393d;" parent="1" vertex="1">
          <mxGeometry x="-675" y="-826" width="90" height="50" as="geometry" />
        </mxCell>
        <mxCell id="izCSbGVo8DyJcmBQW2oV-71" value="ObavjestenjeController" style="swimlane;fontStyle=0;childLayout=stackLayout;horizontal=1;startSize=26;fillColor=#b1ddf0;horizontalStack=0;resizeParent=1;resizeParentMax=0;resizeLast=0;collapsible=1;marginBottom=0;whiteSpace=wrap;html=1;strokeColor=#10739e;" parent="1" vertex="1">
          <mxGeometry x="-1282.5" y="-700" width="240" height="116" as="geometry" />
        </mxCell>
        <mxCell id="izCSbGVo8DyJcmBQW2oV-72" value="-dataContext: DataContext" style="text;strokeColor=#10739e;fillColor=#b1ddf0;align=left;verticalAlign=top;spacingLeft=4;spacingRight=4;overflow=hidden;rotatable=0;points=[[0,0.5],[1,0.5]];portConstraint=eastwest;whiteSpace=wrap;html=1;" parent="izCSbGVo8DyJcmBQW2oV-71" vertex="1">
          <mxGeometry y="26" width="240" height="26" as="geometry" />
        </mxCell>
        <mxCell id="izCSbGVo8DyJcmBQW2oV-112" value="" style="line;strokeWidth=1;fillColor=#b1ddf0;align=left;verticalAlign=middle;spacingTop=-1;spacingLeft=3;spacingRight=3;rotatable=0;labelPosition=right;points=[];portConstraint=eastwest;strokeColor=#10739e;" parent="izCSbGVo8DyJcmBQW2oV-71" vertex="1">
          <mxGeometry y="52" width="240" height="8" as="geometry" />
        </mxCell>
        <mxCell id="izCSbGVo8DyJcmBQW2oV-73" value="+prikaziObavjestenje(): ObavjestenjeView" style="text;strokeColor=#10739e;fillColor=#b1ddf0;align=left;verticalAlign=top;spacingLeft=4;spacingRight=4;overflow=hidden;rotatable=0;points=[[0,0.5],[1,0.5]];portConstraint=eastwest;whiteSpace=wrap;html=1;" parent="izCSbGVo8DyJcmBQW2oV-71" vertex="1">
          <mxGeometry y="60" width="240" height="26" as="geometry" />
        </mxCell>
        <mxCell id="izCSbGVo8DyJcmBQW2oV-74" value="+posaljiObavjestenje(): void" style="text;strokeColor=#10739e;fillColor=#b1ddf0;align=left;verticalAlign=top;spacingLeft=4;spacingRight=4;overflow=hidden;rotatable=0;points=[[0,0.5],[1,0.5]];portConstraint=eastwest;whiteSpace=wrap;html=1;" parent="izCSbGVo8DyJcmBQW2oV-71" vertex="1">
          <mxGeometry y="86" width="240" height="30" as="geometry" />
        </mxCell>
        <mxCell id="izCSbGVo8DyJcmBQW2oV-75" value="ObavjestenjeView" style="swimlane;fontStyle=0;childLayout=stackLayout;horizontal=1;startSize=26;fillColor=#cce5ff;horizontalStack=0;resizeParent=1;resizeParentMax=0;resizeLast=0;collapsible=1;marginBottom=0;whiteSpace=wrap;html=1;strokeColor=#36393d;" parent="1" vertex="1">
          <mxGeometry x="-1245.5" y="-876" width="105" height="50" as="geometry" />
        </mxCell>
        <mxCell id="izCSbGVo8DyJcmBQW2oV-76" value="PrijavaController" style="swimlane;fontStyle=0;childLayout=stackLayout;horizontal=1;startSize=26;fillColor=#b1ddf0;horizontalStack=0;resizeParent=1;resizeParentMax=0;resizeLast=0;collapsible=1;marginBottom=0;whiteSpace=wrap;html=1;strokeColor=#10739e;" parent="1" vertex="1">
          <mxGeometry x="350" y="-674" width="240" height="116" as="geometry" />
        </mxCell>
        <mxCell id="izCSbGVo8DyJcmBQW2oV-77" value="-dataContext: DataContext" style="text;strokeColor=#10739e;fillColor=#b1ddf0;align=left;verticalAlign=top;spacingLeft=4;spacingRight=4;overflow=hidden;rotatable=0;points=[[0,0.5],[1,0.5]];portConstraint=eastwest;whiteSpace=wrap;html=1;" parent="izCSbGVo8DyJcmBQW2oV-76" vertex="1">
          <mxGeometry y="26" width="240" height="26" as="geometry" />
        </mxCell>
        <mxCell id="izCSbGVo8DyJcmBQW2oV-109" value="" style="line;strokeWidth=1;fillColor=#b1ddf0;align=left;verticalAlign=middle;spacingTop=-1;spacingLeft=3;spacingRight=3;rotatable=0;labelPosition=right;points=[];portConstraint=eastwest;strokeColor=#10739e;" parent="izCSbGVo8DyJcmBQW2oV-76" vertex="1">
          <mxGeometry y="52" width="240" height="8" as="geometry" />
        </mxCell>
        <mxCell id="izCSbGVo8DyJcmBQW2oV-78" value="+prijaviSe()" style="text;strokeColor=#10739e;fillColor=#b1ddf0;align=left;verticalAlign=top;spacingLeft=4;spacingRight=4;overflow=hidden;rotatable=0;points=[[0,0.5],[1,0.5]];portConstraint=eastwest;whiteSpace=wrap;html=1;" parent="izCSbGVo8DyJcmBQW2oV-76" vertex="1">
          <mxGeometry y="60" width="240" height="26" as="geometry" />
        </mxCell>
        <mxCell id="izCSbGVo8DyJcmBQW2oV-79" value="+odjaviSe()" style="text;strokeColor=#10739e;fillColor=#b1ddf0;align=left;verticalAlign=top;spacingLeft=4;spacingRight=4;overflow=hidden;rotatable=0;points=[[0,0.5],[1,0.5]];portConstraint=eastwest;whiteSpace=wrap;html=1;" parent="izCSbGVo8DyJcmBQW2oV-76" vertex="1">
          <mxGeometry y="86" width="240" height="30" as="geometry" />
        </mxCell>
        <mxCell id="izCSbGVo8DyJcmBQW2oV-84" value="PrijavaView" style="swimlane;fontStyle=0;childLayout=stackLayout;horizontal=1;startSize=26;fillColor=#cce5ff;horizontalStack=0;resizeParent=1;resizeParentMax=0;resizeLast=0;collapsible=1;marginBottom=0;whiteSpace=wrap;html=1;strokeColor=#36393d;" parent="1" vertex="1">
          <mxGeometry x="400" y="-902" width="110" height="52" as="geometry" />
        </mxCell>
        <mxCell id="izCSbGVo8DyJcmBQW2oV-85" value="" style="endArrow=diamondThin;endFill=1;endSize=24;html=1;rounded=0;entryX=0.076;entryY=1.033;entryDx=0;entryDy=0;entryPerimeter=0;exitX=0.971;exitY=-0.004;exitDx=0;exitDy=0;exitPerimeter=0;" parent="1" target="izCSbGVo8DyJcmBQW2oV-29" edge="1" source="izCSbGVo8DyJcmBQW2oV-1">
          <mxGeometry width="160" relative="1" as="geometry">
            <mxPoint x="-30.67" y="-448" as="sourcePoint" />
            <mxPoint x="-31" y="-540" as="targetPoint" />
            <Array as="points" />
          </mxGeometry>
        </mxCell>
        <mxCell id="izCSbGVo8DyJcmBQW2oV-86" value="" style="endArrow=diamondThin;endFill=1;endSize=24;html=1;rounded=0;" parent="1" edge="1">
          <mxGeometry width="160" relative="1" as="geometry">
            <mxPoint x="-200" y="-450" as="sourcePoint" />
            <mxPoint x="-200" y="-550" as="targetPoint" />
            <Array as="points" />
          </mxGeometry>
        </mxCell>
        <mxCell id="izCSbGVo8DyJcmBQW2oV-87" value="" style="endArrow=diamondThin;endFill=1;endSize=24;html=1;rounded=0;exitX=0.999;exitY=0.064;exitDx=0;exitDy=0;exitPerimeter=0;" parent="1" edge="1" source="izCSbGVo8DyJcmBQW2oV-1">
          <mxGeometry width="160" relative="1" as="geometry">
            <mxPoint x="-20.00000000000049" y="-427.01" as="sourcePoint" />
            <mxPoint x="440" y="-560" as="targetPoint" />
            <Array as="points">
              <mxPoint x="440" y="-432" />
            </Array>
          </mxGeometry>
        </mxCell>
        <mxCell id="izCSbGVo8DyJcmBQW2oV-88" value="" style="endArrow=diamondThin;endFill=1;endSize=24;html=1;rounded=0;entryX=1;entryY=0.5;entryDx=0;entryDy=0;exitX=0.333;exitY=0;exitDx=0;exitDy=0;exitPerimeter=0;" parent="1" source="izCSbGVo8DyJcmBQW2oV-1" target="izCSbGVo8DyJcmBQW2oV-66" edge="1">
          <mxGeometry width="160" relative="1" as="geometry">
            <mxPoint x="-480" y="-480" as="sourcePoint" />
            <mxPoint x="-480" y="-620" as="targetPoint" />
            <Array as="points">
              <mxPoint x="-280" y="-490" />
              <mxPoint x="-280" y="-540" />
              <mxPoint x="-460" y="-540" />
              <mxPoint x="-460" y="-599" />
            </Array>
          </mxGeometry>
        </mxCell>
        <mxCell id="izCSbGVo8DyJcmBQW2oV-89" value="" style="endArrow=diamondThin;endFill=1;endSize=24;html=1;rounded=0;entryX=0.994;entryY=0.673;entryDx=0;entryDy=0;entryPerimeter=0;exitX=0.23;exitY=0.002;exitDx=0;exitDy=0;exitPerimeter=0;" parent="1" source="izCSbGVo8DyJcmBQW2oV-1" target="izCSbGVo8DyJcmBQW2oV-52" edge="1">
          <mxGeometry width="160" relative="1" as="geometry">
            <mxPoint x="-730" y="-440" as="sourcePoint" />
            <mxPoint x="-770" y="-570" as="targetPoint" />
            <Array as="points">
              <mxPoint x="-320" y="-520" />
              <mxPoint x="-500" y="-520" />
              <mxPoint x="-500" y="-560" />
              <mxPoint x="-620" y="-560" />
            </Array>
          </mxGeometry>
        </mxCell>
        <mxCell id="izCSbGVo8DyJcmBQW2oV-90" value="" style="endArrow=diamondThin;endFill=1;endSize=24;html=1;rounded=0;exitX=0.077;exitY=0;exitDx=0;exitDy=0;exitPerimeter=0;" parent="1" source="izCSbGVo8DyJcmBQW2oV-1" edge="1">
          <mxGeometry width="160" relative="1" as="geometry">
            <mxPoint x="-350" y="-480" as="sourcePoint" />
            <mxPoint x="-1130" y="-584" as="targetPoint" />
            <Array as="points">
              <mxPoint x="-380" y="-480" />
              <mxPoint x="-480" y="-480" />
              <mxPoint x="-1130" y="-480" />
            </Array>
          </mxGeometry>
        </mxCell>
        <mxCell id="izCSbGVo8DyJcmBQW2oV-93" value="" style="html=1;verticalAlign=bottom;endArrow=open;dashed=1;endSize=8;curved=0;rounded=0;entryX=0.5;entryY=1;entryDx=0;entryDy=0;" parent="1" target="izCSbGVo8DyJcmBQW2oV-75" edge="1">
          <mxGeometry relative="1" as="geometry">
            <mxPoint x="-1194" y="-701" as="sourcePoint" />
            <mxPoint x="-1174" y="-760" as="targetPoint" />
            <Array as="points">
              <mxPoint x="-1194" y="-740" />
            </Array>
          </mxGeometry>
        </mxCell>
        <mxCell id="izCSbGVo8DyJcmBQW2oV-94" value="" style="html=1;verticalAlign=bottom;endArrow=open;dashed=1;endSize=8;curved=0;rounded=0;exitX=0.094;exitY=-0.009;exitDx=0;exitDy=0;exitPerimeter=0;" parent="1" source="izCSbGVo8DyJcmBQW2oV-46" edge="1">
          <mxGeometry relative="1" as="geometry">
            <mxPoint x="-1000" y="-790" as="sourcePoint" />
            <mxPoint x="-1030" y="-860" as="targetPoint" />
            <Array as="points">
              <mxPoint x="-1010" y="-810" />
              <mxPoint x="-1030" y="-810" />
            </Array>
          </mxGeometry>
        </mxCell>
        <mxCell id="izCSbGVo8DyJcmBQW2oV-95" value="" style="html=1;verticalAlign=bottom;endArrow=open;dashed=1;endSize=8;curved=0;rounded=0;exitX=0.475;exitY=-0.006;exitDx=0;exitDy=0;exitPerimeter=0;" parent="1" source="izCSbGVo8DyJcmBQW2oV-46" edge="1">
          <mxGeometry relative="1" as="geometry">
            <mxPoint x="-926.33" y="-800" as="sourcePoint" />
            <mxPoint x="-926.33" y="-860" as="targetPoint" />
          </mxGeometry>
        </mxCell>
        <mxCell id="izCSbGVo8DyJcmBQW2oV-96" value="" style="html=1;verticalAlign=bottom;endArrow=open;dashed=1;endSize=8;curved=0;rounded=0;exitX=0.926;exitY=-0.009;exitDx=0;exitDy=0;exitPerimeter=0;" parent="1" source="izCSbGVo8DyJcmBQW2oV-46" edge="1">
          <mxGeometry relative="1" as="geometry">
            <mxPoint x="-827" y="-800" as="sourcePoint" />
            <mxPoint x="-827" y="-860" as="targetPoint" />
          </mxGeometry>
        </mxCell>
        <mxCell id="izCSbGVo8DyJcmBQW2oV-97" value="" style="html=1;verticalAlign=bottom;endArrow=open;dashed=1;endSize=8;curved=0;rounded=0;exitX=0.5;exitY=0;exitDx=0;exitDy=0;" parent="1" source="izCSbGVo8DyJcmBQW2oV-60" edge="1">
          <mxGeometry relative="1" as="geometry">
            <mxPoint x="-630.3299999999999" y="-716" as="sourcePoint" />
            <mxPoint x="-630.3299999999999" y="-776" as="targetPoint" />
          </mxGeometry>
        </mxCell>
        <mxCell id="izCSbGVo8DyJcmBQW2oV-98" value="" style="html=1;verticalAlign=bottom;endArrow=open;dashed=1;endSize=8;curved=0;rounded=0;exitX=0.04;exitY=-0.005;exitDx=0;exitDy=0;exitPerimeter=0;" parent="1" source="izCSbGVo8DyJcmBQW2oV-37" edge="1">
          <mxGeometry relative="1" as="geometry">
            <mxPoint x="-440" y="-770" as="sourcePoint" />
            <mxPoint x="-439.9999999999999" y="-865" as="targetPoint" />
            <Array as="points">
              <mxPoint x="-420" y="-820" />
              <mxPoint x="-440" y="-820" />
            </Array>
          </mxGeometry>
        </mxCell>
        <mxCell id="izCSbGVo8DyJcmBQW2oV-99" value="" style="html=1;verticalAlign=bottom;endArrow=open;dashed=1;endSize=8;curved=0;rounded=0;exitX=0.436;exitY=-0.008;exitDx=0;exitDy=0;exitPerimeter=0;" parent="1" source="izCSbGVo8DyJcmBQW2oV-37" edge="1">
          <mxGeometry relative="1" as="geometry">
            <mxPoint x="-320.3299999999999" y="-800" as="sourcePoint" />
            <mxPoint x="-320.3299999999999" y="-860" as="targetPoint" />
          </mxGeometry>
        </mxCell>
        <mxCell id="izCSbGVo8DyJcmBQW2oV-100" value="" style="html=1;verticalAlign=bottom;endArrow=open;dashed=1;endSize=8;curved=0;rounded=0;exitX=0.906;exitY=-0.005;exitDx=0;exitDy=0;exitPerimeter=0;" parent="1" source="izCSbGVo8DyJcmBQW2oV-37" edge="1">
          <mxGeometry relative="1" as="geometry">
            <mxPoint x="-199.99999999999994" y="-802" as="sourcePoint" />
            <mxPoint x="-199.99999999999994" y="-862" as="targetPoint" />
          </mxGeometry>
        </mxCell>
        <mxCell id="izCSbGVo8DyJcmBQW2oV-101" value="" style="html=1;verticalAlign=bottom;endArrow=open;dashed=1;endSize=8;curved=0;rounded=0;exitX=0.116;exitY=-0.008;exitDx=0;exitDy=0;exitPerimeter=0;" parent="1" source="izCSbGVo8DyJcmBQW2oV-24" edge="1">
          <mxGeometry relative="1" as="geometry">
            <mxPoint x="-19.999999999999886" y="-800" as="sourcePoint" />
            <mxPoint x="-19.999999999999886" y="-860" as="targetPoint" />
          </mxGeometry>
        </mxCell>
        <mxCell id="izCSbGVo8DyJcmBQW2oV-102" value="" style="html=1;verticalAlign=bottom;endArrow=open;dashed=1;endSize=8;curved=0;rounded=0;exitX=0.581;exitY=-0.011;exitDx=0;exitDy=0;exitPerimeter=0;" parent="1" source="izCSbGVo8DyJcmBQW2oV-24" edge="1">
          <mxGeometry relative="1" as="geometry">
            <mxPoint x="90.00000000000011" y="-805" as="sourcePoint" />
            <mxPoint x="90.00000000000011" y="-865" as="targetPoint" />
          </mxGeometry>
        </mxCell>
        <mxCell id="izCSbGVo8DyJcmBQW2oV-103" value="" style="html=1;verticalAlign=bottom;endArrow=open;dashed=1;endSize=8;curved=0;rounded=0;" parent="1" edge="1">
          <mxGeometry relative="1" as="geometry">
            <mxPoint x="170" y="-720" as="sourcePoint" />
            <mxPoint x="210.0000000000001" y="-863" as="targetPoint" />
            <Array as="points">
              <mxPoint x="170" y="-800" />
              <mxPoint x="210" y="-800" />
            </Array>
          </mxGeometry>
        </mxCell>
        <mxCell id="izCSbGVo8DyJcmBQW2oV-104" value="" style="html=1;verticalAlign=bottom;endArrow=open;dashed=1;endSize=8;curved=0;rounded=0;exitX=0.432;exitY=-0.024;exitDx=0;exitDy=0;exitPerimeter=0;" parent="1" source="izCSbGVo8DyJcmBQW2oV-76" edge="1">
          <mxGeometry relative="1" as="geometry">
            <mxPoint x="454.67000000000013" y="-790" as="sourcePoint" />
            <mxPoint x="454.67000000000013" y="-850" as="targetPoint" />
          </mxGeometry>
        </mxCell>
        <mxCell id="8IgUgt9DjoDqv00GWVEp-6" value="PretragaView" style="swimlane;fontStyle=0;childLayout=stackLayout;horizontal=1;startSize=26;fillColor=#cce5ff;horizontalStack=0;resizeParent=1;resizeParentMax=0;resizeLast=0;collapsible=1;marginBottom=0;whiteSpace=wrap;html=1;strokeColor=#36393d;" vertex="1" parent="1">
          <mxGeometry x="-1540" y="-876" width="100" height="50" as="geometry" />
        </mxCell>
        <mxCell id="8IgUgt9DjoDqv00GWVEp-8" value="PretragaController" style="swimlane;fontStyle=0;childLayout=stackLayout;horizontal=1;startSize=26;fillColor=#b1ddf0;horizontalStack=0;resizeParent=1;resizeParentMax=0;resizeLast=0;collapsible=1;marginBottom=0;whiteSpace=wrap;html=1;strokeColor=#10739e;" vertex="1" parent="1">
          <mxGeometry x="-1610" y="-700" width="310" height="120" as="geometry" />
        </mxCell>
        <mxCell id="8IgUgt9DjoDqv00GWVEp-9" value="-dataContext: DataContext" style="text;strokeColor=#10739e;fillColor=#b1ddf0;align=left;verticalAlign=top;spacingLeft=4;spacingRight=4;overflow=hidden;rotatable=0;points=[[0,0.5],[1,0.5]];portConstraint=eastwest;whiteSpace=wrap;html=1;" vertex="1" parent="8IgUgt9DjoDqv00GWVEp-8">
          <mxGeometry y="26" width="310" height="26" as="geometry" />
        </mxCell>
        <mxCell id="8IgUgt9DjoDqv00GWVEp-10" value="" style="line;strokeWidth=1;fillColor=#b1ddf0;align=left;verticalAlign=middle;spacingTop=-1;spacingLeft=3;spacingRight=3;rotatable=0;labelPosition=right;points=[];portConstraint=eastwest;strokeColor=#10739e;" vertex="1" parent="8IgUgt9DjoDqv00GWVEp-8">
          <mxGeometry y="52" width="310" height="8" as="geometry" />
        </mxCell>
        <mxCell id="8IgUgt9DjoDqv00GWVEp-11" value="+prikaziSve(): PretragaView" style="text;strokeColor=#10739e;fillColor=#b1ddf0;align=left;verticalAlign=top;spacingLeft=4;spacingRight=4;overflow=hidden;rotatable=0;points=[[0,0.5],[1,0.5]];portConstraint=eastwest;whiteSpace=wrap;html=1;" vertex="1" parent="8IgUgt9DjoDqv00GWVEp-8">
          <mxGeometry y="60" width="310" height="26" as="geometry" />
        </mxCell>
        <mxCell id="8IgUgt9DjoDqv00GWVEp-12" value="+prikaziFiltritano(List&amp;lt;FilterNekretnina&amp;gt;): PretragaView" style="text;strokeColor=#10739e;fillColor=#b1ddf0;align=left;verticalAlign=top;spacingLeft=4;spacingRight=4;overflow=hidden;rotatable=0;points=[[0,0.5],[1,0.5]];portConstraint=eastwest;whiteSpace=wrap;html=1;" vertex="1" parent="8IgUgt9DjoDqv00GWVEp-8">
          <mxGeometry y="86" width="310" height="34" as="geometry" />
        </mxCell>
        <mxCell id="8IgUgt9DjoDqv00GWVEp-14" value="" style="html=1;verticalAlign=bottom;endArrow=open;dashed=1;endSize=8;curved=0;rounded=0;entryX=0.5;entryY=1;entryDx=0;entryDy=0;" edge="1" parent="1">
          <mxGeometry relative="1" as="geometry">
            <mxPoint x="-1490.5" y="-700" as="sourcePoint" />
            <mxPoint x="-1489.5" y="-825" as="targetPoint" />
            <Array as="points">
              <mxPoint x="-1490.5" y="-739" />
            </Array>
          </mxGeometry>
        </mxCell>
        <mxCell id="8IgUgt9DjoDqv00GWVEp-21" value="" style="endArrow=diamondThin;endFill=1;endSize=24;html=1;rounded=0;exitX=-0.003;exitY=0.027;exitDx=0;exitDy=0;exitPerimeter=0;" edge="1" parent="1" source="izCSbGVo8DyJcmBQW2oV-1">
          <mxGeometry width="160" relative="1" as="geometry">
            <mxPoint x="-400" y="-460" as="sourcePoint" />
            <mxPoint x="-1480" y="-580" as="targetPoint" />
            <Array as="points">
              <mxPoint x="-480" y="-442" />
              <mxPoint x="-480" y="-460" />
              <mxPoint x="-560" y="-460" />
              <mxPoint x="-720" y="-460" />
              <mxPoint x="-830" y="-460" />
              <mxPoint x="-990" y="-460" />
              <mxPoint x="-1150" y="-460" />
              <mxPoint x="-1480" y="-460" />
            </Array>
          </mxGeometry>
        </mxCell>
      </root>
    </mxGraphModel>
  </diagram>
</mxfile>
